<?xml version="1.0" encoding="UTF-8"?>
<!DOCTYPE svg PUBLIC "-//W3C//DTD SVG 1.1//EN" "http://www.w3.org/Graphics/SVG/1.1/DTD/svg11.dtd">
<!-- Creator: CorelDRAW 2020 (64-Bit) -->
<svg xmlns="http://www.w3.org/2000/svg" xml:space="preserve" width="600px" height="600px" version="1.1" style="shape-rendering:geometricPrecision; text-rendering:geometricPrecision; image-rendering:optimizeQuality; fill-rule:evenodd; clip-rule:evenodd"
viewBox="0 0 600 600"
 xmlns:xlink="http://www.w3.org/1999/xlink"
 xmlns:xodm="http://www.corel.com/coreldraw/odm/2003">
 <defs>
  <style type="text/css">
   <![CDATA[
    .fil4 {fill:#F9B12F}
    .fil10 {fill:#87261F}
    .fil0 {fill:#727271;fill-rule:nonzero}
    .fil1 {fill:#2B2A29;fill-rule:nonzero}
    .fil15 {fill:url(#id20)}
    .fil6 {fill:url(#id21)}
    .fil17 {fill:url(#id22)}
    .fil8 {fill:url(#id23)}
    .fil18 {fill:url(#id24)}
    .fil9 {fill:url(#id25)}
    .fil13 {fill:url(#id26)}
    .fil3 {fill:url(#id27)}
    .fil11 {fill:url(#id28)}
    .fil19 {fill:url(#id29)}
    .fil2 {fill:url(#id30)}
    .fil7 {fill:url(#id31)}
    .fil12 {fill:url(#id32)}
    .fil5 {fill:url(#id33)}
    .fil14 {fill:url(#id34)}
    .fil16 {fill:url(#id35)}
   ]]>
  </style>
    <mask id="id0">
      <pattern id="id1" patternUnits="userSpaceOnUse" patternTransform="matrix(1 0 0 1 299.731 -626.689)" x="0" y="0" width="838.2" height="924.9" viewBox="-4691.56 -3730.33 838.2 924.9">
       <polygon id="1" class="fil3" points="-4597.5,-3730.34 -3862.98,-3730.34 -3862.98,-2805.43 -4597.5,-2805.43 "/>
      </pattern>
     <rect style="fill:url(#id1)" x="393.79" y="211.65" width="68.75" height="86.56"/>
    </mask>
    <mask id="id2">
      <pattern id="id3" patternUnits="userSpaceOnUse" patternTransform="matrix(1 0 0 1 326.594 -325.92)" x="0" y="0" width="656.38" height="616.43" viewBox="-4613.44 -3504.15 656.38 616.43">
       <polygon id="1" class="fil6" points="-4540.94,-3504.14 -3970.42,-3504.14 -3970.42,-2887.72 -4540.94,-2887.72 "/>
      </pattern>
     <rect style="fill:url(#id3)" x="399.06" y="232.79" width="53.45" height="57.75"/>
    </mask>
    <mask id="id4">
      <pattern id="id5" patternUnits="userSpaceOnUse" patternTransform="matrix(1 0 0 1 289.865 -187.031)" x="0" y="0" width="600.05" height="485.24" viewBox="-4617.67 -3290.67 600.05 485.24">
       <polygon id="1" class="fil8" points="-4505.09,-3290.67 -4056.58,-3290.67 -4056.58,-2805.43 -4505.09,-2805.43 "/>
      </pattern>
     <rect style="fill:url(#id5)" x="402.41" y="252.77" width="42.04" height="45.47"/>
    </mask>
    <mask id="id6">
      <pattern id="id7" patternUnits="userSpaceOnUse" patternTransform="matrix(1 0 0 1 362.309 -112.444)" x="0" y="0" width="517.34" height="402.95" viewBox="-4573.43 -3290.67 517.34 402.95">
       <polygon id="1" class="fil9" points="-4536.21,-3290.67 -4056.64,-3290.67 -4056.64,-2887.72 -4536.21,-2887.72 "/>
      </pattern>
     <rect style="fill:url(#id7)" x="399.5" y="252.77" width="44.94" height="37.77"/>
    </mask>
    <mask id="id8">
      <pattern id="id9" patternUnits="userSpaceOnUse" patternTransform="matrix(1 0 0 1 269.415 -400.506)" x="0" y="0" width="722.29" height="698.72" viewBox="-4691.56 -3504.14 722.29 698.72">
       <polygon id="1" class="fil11" points="-4564.06,-3504.14 -3970.42,-3504.14 -3970.42,-2805.42 -4564.06,-2805.42 "/>
      </pattern>
     <rect style="fill:url(#id9)" x="396.92" y="232.82" width="55.56" height="65.39"/>
    </mask>
    <mask id="id10">
      <pattern id="id11" patternUnits="userSpaceOnUse" patternTransform="matrix(1 0 0 1 302.673 -626.689)" x="0" y="0" width="838.2" height="924.9" viewBox="-5478.1 -3730.33 838.2 924.9">
       <polygon id="1" class="fil13" points="-4733.96,-3730.34 -5468.49,-3730.34 -5468.49,-2805.43 -4733.96,-2805.43 "/>
      </pattern>
     <rect style="fill:url(#id11)" x="312.25" y="211.62" width="68.8" height="86.62"/>
    </mask>
    <mask id="id12">
      <pattern id="id13" patternUnits="userSpaceOnUse" patternTransform="matrix(1 0 0 1 308.978 -325.921)" x="0" y="0" width="656.38" height="616.43" viewBox="-5374.41 -3504.15 656.38 616.43">
       <polygon id="1" class="fil15" points="-4790.52,-3504.14 -5361.05,-3504.14 -5361.05,-2887.72 -4790.52,-2887.72 "/>
      </pattern>
     <rect style="fill:url(#id13)" x="322.34" y="232.82" width="53.39" height="57.69"/>
    </mask>
    <mask id="id14">
      <pattern id="id15" patternUnits="userSpaceOnUse" patternTransform="matrix(1 0 0 1 291.429 -187.031)" x="0" y="0" width="600.05" height="485.24" viewBox="-5313.85 -3290.67 600.05 485.24">
       <polygon id="1" class="fil17" points="-4826.38,-3290.67 -5274.88,-3290.67 -5274.88,-2805.43 -4826.38,-2805.43 "/>
      </pattern>
     <rect style="fill:url(#id15)" x="330.37" y="252.77" width="42.03" height="45.47"/>
    </mask>
    <mask id="id16">
      <pattern id="id17" patternUnits="userSpaceOnUse" patternTransform="matrix(1 0 0 1 329.86 -112.444)" x="0" y="0" width="517.34" height="402.95" viewBox="-5275.37 -3290.67 517.34 402.95">
       <polygon id="1" class="fil18" points="-4795.26,-3290.67 -5274.82,-3290.67 -5274.82,-2887.72 -4795.26,-2887.72 "/>
      </pattern>
     <rect style="fill:url(#id17)" x="330.38" y="252.77" width="44.94" height="37.77"/>
    </mask>
    <mask id="id18">
      <pattern id="id19" patternUnits="userSpaceOnUse" patternTransform="matrix(1 0 0 1 321.195 -400.506)" x="0" y="0" width="722.29" height="698.72" viewBox="-5362.19 -3504.14 722.29 698.72">
       <polygon id="1" class="fil19" points="-4767.41,-3504.14 -5361.05,-3504.14 -5361.05,-2805.42 -4767.41,-2805.42 "/>
      </pattern>
     <rect style="fill:url(#id19)" x="322.31" y="232.79" width="55.62" height="65.45"/>
    </mask>
  <linearGradient id="id20" gradientUnits="userSpaceOnUse" x1="-5202.59" y1="-3279.08" x2="-4948.97" y2="-3112.77">
   <stop offset="0" style="stop-opacity:1; stop-color:white"/>
   <stop offset="1" style="stop-opacity:1; stop-color:white"/>
  </linearGradient>
  <linearGradient id="id21" gradientUnits="userSpaceOnUse" xlink:href="#id20" x1="-4128.87" y1="-3279.08" x2="-4382.49" y2="-3112.77">
  </linearGradient>
  <linearGradient id="id22" gradientUnits="userSpaceOnUse" xlink:href="#id20" x1="-5157.49" y1="-3109.68" x2="-4943.77" y2="-2986.42">
  </linearGradient>
  <linearGradient id="id23" gradientUnits="userSpaceOnUse" xlink:href="#id20" x1="-4173.97" y1="-3109.68" x2="-4387.7" y2="-2986.42">
  </linearGradient>
  <linearGradient id="id24" gradientUnits="userSpaceOnUse" xlink:href="#id20" x1="-4921.76" y1="-3036.5" x2="-5148.32" y2="-3141.89">
  </linearGradient>
  <linearGradient id="id25" gradientUnits="userSpaceOnUse" xlink:href="#id20" x1="-4409.71" y1="-3036.5" x2="-4183.14" y2="-3141.89">
  </linearGradient>
  <linearGradient id="id26" gradientUnits="userSpaceOnUse" xlink:href="#id20" x1="-5257.4" y1="-3406.29" x2="-4945.05" y2="-3129.48">
  </linearGradient>
  <linearGradient id="id27" gradientUnits="userSpaceOnUse" xlink:href="#id20" x1="-4074.06" y1="-3406.29" x2="-4386.41" y2="-3129.48">
  </linearGradient>
  <linearGradient id="id28" gradientUnits="userSpaceOnUse" xlink:href="#id20" x1="-4432.86" y1="-3077.73" x2="-4101.61" y2="-3231.82">
  </linearGradient>
  <linearGradient id="id29" gradientUnits="userSpaceOnUse" xlink:href="#id20" x1="-4898.6" y1="-3077.73" x2="-5229.85" y2="-3231.82">
  </linearGradient>
  <linearGradient id="id30" gradientUnits="userSpaceOnUse" x1="257.49" y1="360.36" x2="502.93" y2="206.49">
   <stop offset="0" style="stop-opacity:1; stop-color:#D13223"/>
   <stop offset="1" style="stop-opacity:1; stop-color:#F59F0D"/>
  </linearGradient>
  <linearGradient id="id31" gradientUnits="userSpaceOnUse" xlink:href="#id30" x1="312.84" y1="343.93" x2="533.23" y2="205.76">
  </linearGradient>
  <linearGradient id="id32" gradientUnits="userSpaceOnUse" xlink:href="#id30" x1="180.98" y1="360.36" x2="426.43" y2="206.49">
  </linearGradient>
  <linearGradient id="id33" gradientUnits="userSpaceOnUse" xlink:href="#id30" x1="289.62" y1="348.58" x2="562.41" y2="173.06">
  </linearGradient>
  <linearGradient id="id34" gradientUnits="userSpaceOnUse" xlink:href="#id30" x1="215.03" y1="348.58" x2="487.82" y2="173.06">
  </linearGradient>
  <linearGradient id="id35" gradientUnits="userSpaceOnUse" xlink:href="#id30" x1="243.71" y1="343.93" x2="464.1" y2="205.76">
  </linearGradient>
 </defs>
 <g id="Layer_x0020_1">
  <metadata id="CorelCorpID_0Corel-Layer"/>
  <g id="_2408817737664">
   <path class="fil0" d="M139.57 376l-1.67 0c0.05,-1.72 0.62,-3.12 1.72,-4.22 1.09,-1.1 2.44,-1.65 4.05,-1.65 1.6,0 2.89,0.51 3.87,1.54 0.99,1.04 1.48,2.25 1.48,3.65 0,0.99 -0.24,1.91 -0.71,2.77 -0.47,0.87 -1.39,2.03 -2.74,3.5l-4.33 4.68 8.02 0 0 1.64 -11.77 0 6.62 -7.14c1.34,-1.44 2.21,-2.51 2.61,-3.21 0.41,-0.7 0.61,-1.43 0.61,-2.21 0,-0.97 -0.36,-1.82 -1.09,-2.52 -0.72,-0.7 -1.61,-1.06 -2.66,-1.06 -1.11,0 -2.02,0.37 -2.76,1.11 -0.73,0.74 -1.15,1.78 -1.25,3.12zm32.53 5.51l1.19 1.26c-0.76,0.65 -1.48,1.22 -2.16,1.72 0.46,0.44 1.07,1.03 1.83,1.78 0.59,0.6 1.11,1.15 1.56,1.64l-2.42 0 -2.31 -2.35c-1.44,1.15 -2.62,1.91 -3.52,2.26 -0.91,0.35 -1.86,0.53 -2.86,0.53 -1.34,0 -2.41,-0.38 -3.22,-1.15 -0.81,-0.76 -1.21,-1.72 -1.21,-2.86 0,-0.87 0.27,-1.73 0.81,-2.6 0.54,-0.86 1.65,-1.96 3.32,-3.28 -0.93,-1.16 -1.53,-2.01 -1.8,-2.55 -0.27,-0.55 -0.4,-1.07 -0.4,-1.57 0,-0.87 0.33,-1.59 1,-2.15 0.77,-0.67 1.73,-1 2.87,-1 0.73,0 1.38,0.15 1.98,0.44 0.59,0.29 1.05,0.68 1.36,1.17 0.32,0.49 0.47,1.02 0.47,1.57 0,0.58 -0.2,1.2 -0.61,1.86 -0.41,0.66 -1.22,1.49 -2.42,2.52l2.63 2.76 1.72 1.74c0.92,-0.69 1.65,-1.27 2.19,-1.74zm-7.61 -4.06c0.83,-0.65 1.47,-1.29 1.89,-1.93 0.3,-0.44 0.45,-0.84 0.45,-1.19 0,-0.4 -0.19,-0.74 -0.58,-1.04 -0.39,-0.29 -0.91,-0.43 -1.55,-0.43 -0.61,0 -1.11,0.15 -1.5,0.45 -0.38,0.3 -0.57,0.65 -0.57,1.06 0,0.31 0.07,0.61 0.23,0.88 0.39,0.67 0.93,1.41 1.63,2.2zm-0.23 2.32c-1.47,1.1 -2.43,1.98 -2.89,2.64 -0.45,0.65 -0.68,1.26 -0.68,1.81 0,0.66 0.28,1.24 0.84,1.75 0.56,0.51 1.25,0.76 2.05,0.76 0.62,0 1.22,-0.13 1.81,-0.38 0.93,-0.41 1.99,-1.08 3.19,-2.04l-2.74 -2.8c-0.47,-0.5 -1,-1.08 -1.58,-1.74zm20.78 -5.17l-1.78 0c0.32,-1.44 0.93,-2.54 1.85,-3.31 0.9,-0.78 1.98,-1.16 3.22,-1.16 0.9,0 1.75,0.2 2.53,0.62 0.78,0.41 1.38,0.96 1.81,1.66 0.43,0.71 0.64,1.44 0.64,2.2 0,1.49 -0.74,2.68 -2.21,3.55 0.83,0.34 1.51,0.83 2.04,1.48 0.76,0.93 1.14,1.95 1.14,3.09 0,0.99 -0.26,1.92 -0.78,2.82 -0.52,0.89 -1.23,1.58 -2.12,2.07 -0.9,0.48 -1.9,0.73 -3.01,0.73 -1.49,0 -2.74,-0.43 -3.74,-1.3 -1,-0.86 -1.65,-2.13 -1.95,-3.8l1.69 0c0.3,1.13 0.72,1.94 1.28,2.45 0.72,0.64 1.63,0.96 2.74,0.96 1.25,0 2.27,-0.38 3.03,-1.13 0.76,-0.76 1.14,-1.64 1.14,-2.66 0,-0.67 -0.19,-1.3 -0.57,-1.89 -0.38,-0.59 -0.89,-1.03 -1.53,-1.34 -0.64,-0.29 -1.63,-0.47 -2.97,-0.55l0 -1.59c0.79,0 1.51,-0.14 2.17,-0.42 0.65,-0.28 1.12,-0.63 1.42,-1.07 0.29,-0.43 0.44,-0.9 0.44,-1.41 0,-0.75 -0.3,-1.41 -0.9,-1.96 -0.6,-0.55 -1.35,-0.82 -2.27,-0.82 -0.75,0 -1.39,0.21 -1.93,0.63 -0.54,0.42 -1,1.14 -1.38,2.15zm19.02 -4.04l3.42 0c1.38,0 2.44,0.16 3.18,0.49 0.74,0.33 1.32,0.83 1.75,1.51 0.43,0.67 0.64,1.42 0.64,2.24 0,0.78 -0.18,1.48 -0.56,2.11 -0.37,0.63 -0.93,1.14 -1.65,1.54 0.9,0.31 1.59,0.66 2.08,1.08 0.48,0.41 0.86,0.91 1.13,1.5 0.27,0.58 0.41,1.22 0.41,1.9 0,1.4 -0.51,2.58 -1.53,3.54 -1.02,0.96 -2.38,1.44 -4.1,1.44l-4.77 0 0 -17.35zm1.7 1.69l0 5.56 0.99 0c1.21,0 2.1,-0.11 2.67,-0.33 0.56,-0.23 1.02,-0.58 1.35,-1.07 0.33,-0.48 0.5,-1.02 0.5,-1.61 0,-0.79 -0.28,-1.41 -0.84,-1.87 -0.56,-0.45 -1.44,-0.68 -2.66,-0.68l-2.01 0zm0 7.3l0 6.67 2.15 0c1.27,0 2.2,-0.12 2.79,-0.37 0.59,-0.25 1.07,-0.64 1.43,-1.17 0.36,-0.52 0.54,-1.1 0.54,-1.71 0,-0.77 -0.26,-1.45 -0.76,-2.02 -0.5,-0.58 -1.2,-0.97 -2.08,-1.18 -0.59,-0.15 -1.62,-0.22 -3.09,-0.22l-0.98 0zm12.11 -8.99l1.74 0 0 7.28 8.84 0 0 -7.28 1.74 0 0 17.35 -1.74 0 0 -8.38 -8.84 0 0 8.38 -1.74 0 0 -17.35zm16.53 0l1.77 0 0 6.51 6.95 -6.51 2.34 0 -8.36 7.78 9.01 9.57 -2.32 0 -7.62 -8.1 0 8.1 -1.77 0 0 -17.35zm29.24 -0.43c2.63,0 4.83,0.87 6.6,2.63 1.76,1.75 2.65,3.91 2.65,6.47 0,2.54 -0.88,4.7 -2.65,6.46 -1.76,1.77 -3.91,2.66 -6.46,2.66 -2.57,0 -4.74,-0.88 -6.51,-2.64 -1.76,-1.76 -2.65,-3.89 -2.65,-6.4 0,-1.66 0.4,-3.21 1.21,-4.63 0.8,-1.42 1.9,-2.54 3.3,-3.34 1.39,-0.81 2.89,-1.21 4.51,-1.21zm0.08 1.69c-1.28,0 -2.5,0.33 -3.65,1 -1.15,0.67 -2.05,1.57 -2.69,2.7 -0.65,1.14 -0.97,2.4 -0.97,3.79 0,2.06 0.71,3.8 2.14,5.22 1.43,1.42 3.16,2.13 5.17,2.13 1.35,0 2.59,-0.33 3.74,-0.98 1.14,-0.65 2.04,-1.55 2.68,-2.68 0.64,-1.13 0.96,-2.39 0.96,-3.77 0,-1.38 -0.32,-2.63 -0.96,-3.74 -0.64,-1.11 -1.55,-2 -2.71,-2.67 -1.16,-0.67 -2.4,-1 -3.71,-1zm12.65 -1.26l3.46 0c1.99,0 3.33,0.09 4.02,0.26 0.99,0.25 1.8,0.74 2.43,1.51 0.63,0.75 0.95,1.71 0.95,2.86 0,1.15 -0.31,2.1 -0.93,2.86 -0.61,0.75 -1.45,1.25 -2.53,1.51 -0.79,0.19 -2.26,0.28 -4.41,0.28l-1.24 0 0 8.07 -1.75 0 0 -17.35zm1.75 1.69l0 5.9 2.94 0.04c1.18,0 2.05,-0.11 2.61,-0.33 0.55,-0.22 0.98,-0.56 1.3,-1.05 0.31,-0.48 0.47,-1.02 0.47,-1.62 0,-0.58 -0.16,-1.12 -0.47,-1.6 -0.32,-0.48 -0.74,-0.82 -1.25,-1.03 -0.52,-0.21 -1.36,-0.31 -2.54,-0.31l-3.06 0zm12.63 -1.69l1.74 0 0 10.48c0,1.24 0.02,2.02 0.07,2.33 0.09,0.68 0.29,1.25 0.6,1.71 0.32,0.46 0.8,0.85 1.45,1.16 0.65,0.31 1.31,0.47 1.98,0.47 0.57,0 1.12,-0.13 1.65,-0.37 0.52,-0.24 0.96,-0.58 1.32,-1.02 0.35,-0.43 0.61,-0.95 0.78,-1.56 0.11,-0.45 0.17,-1.35 0.17,-2.72l0 -10.48 1.74 0 0 10.47c0,1.56 -0.15,2.81 -0.45,3.76 -0.3,0.96 -0.91,1.79 -1.82,2.49 -0.91,0.71 -2.01,1.07 -3.3,1.07 -1.4,0 -2.6,-0.34 -3.6,-1 -1.01,-0.67 -1.67,-1.55 -2.01,-2.66 -0.22,-0.68 -0.32,-1.89 -0.32,-3.66l0 -10.47zm15.75 0l1.74 0 0 15.66 6.7 0 0 1.69 -8.44 0 0 -17.35zm11.19 0l9.93 0 0 1.69 -8.19 0 0 5.44 8.12 0 0 1.69 -8.12 0 0 6.84 8.12 0 0 1.69 -9.86 0 0 -17.35zm12.96 17.35l0 -17.35 0.37 0 11.54 13.27 0 -13.27 1.74 0 0 17.35 -0.39 0 -11.48 -13.15 0 13.15 -1.78 0zm34.01 -14.15l-1.37 1.05c-0.75,-0.98 -1.66,-1.72 -2.71,-2.23 -1.06,-0.51 -2.22,-0.76 -3.49,-0.76 -1.38,0 -2.66,0.33 -3.84,1 -1.18,0.66 -2.09,1.56 -2.74,2.68 -0.65,1.12 -0.97,2.38 -0.97,3.78 0,2.12 0.72,3.89 2.17,5.3 1.45,1.42 3.28,2.13 5.49,2.13 2.43,0 4.46,-0.96 6.09,-2.86l1.37 1.04c-0.86,1.1 -1.94,1.96 -3.23,2.56 -1.3,0.6 -2.74,0.9 -4.34,0.9 -3.04,0 -5.43,-1.01 -7.18,-3.03 -1.47,-1.71 -2.21,-3.77 -2.21,-6.18 0,-2.54 0.89,-4.68 2.67,-6.41 1.78,-1.74 4.02,-2.6 6.7,-2.6 1.62,0 3.08,0.32 4.38,0.95 1.31,0.64 2.38,1.54 3.21,2.68zm3.51 -3.2l9.93 0 0 1.69 -8.19 0 0 5.44 8.12 0 0 1.69 -8.12 0 0 6.84 8.12 0 0 1.69 -9.86 0 0 -17.35zm19.62 0l1.74 0 0 15.66 6.7 0 0 1.69 -8.44 0 0 -17.35zm10.92 0l1.74 0 0 17.35 -1.74 0 0 -17.35zm4.4 0l1.89 0 5.76 13.43 5.85 -13.43 1.89 0 -7.56 17.35 -0.39 0 -7.44 -17.35zm18.03 0l1.74 0 0 17.35 -1.74 0 0 -17.35zm5.73 17.35l0 -17.35 0.37 0 11.54 13.27 0 -13.27 1.74 0 0 17.35 -0.39 0 -11.47 -13.15 0 13.15 -1.79 0zm34.62 -14.44l-1.34 1.27c-0.97,-0.95 -2.04,-1.67 -3.19,-2.16 -1.16,-0.49 -2.29,-0.74 -3.39,-0.74 -1.36,0 -2.66,0.34 -3.9,1.01 -1.23,0.66 -2.19,1.57 -2.87,2.72 -0.68,1.14 -1.02,2.35 -1.02,3.63 0,1.3 0.35,2.54 1.06,3.72 0.7,1.18 1.67,2.1 2.9,2.77 1.24,0.68 2.6,1.02 4.07,1.02 1.79,0 3.3,-0.51 4.54,-1.51 1.24,-1 1.97,-2.31 2.2,-3.91l-5.53 0 0 -1.69 7.49 0c-0.02,2.68 -0.82,4.81 -2.4,6.38 -1.58,1.58 -3.69,2.37 -6.34,2.37 -3.21,0 -5.76,-1.09 -7.64,-3.28 -1.44,-1.68 -2.16,-3.63 -2.16,-5.84 0,-1.64 0.42,-3.17 1.24,-4.59 0.83,-1.41 1.97,-2.52 3.41,-3.32 1.45,-0.79 3.08,-1.19 4.9,-1.19 1.47,0 2.86,0.26 4.16,0.79 1.3,0.53 2.58,1.38 3.81,2.55z"/>
   <path class="fil1" d="M137.46 260.88l4.03 0 0 28.66 -4.03 0 0 -28.66zm1.96 24.84l16.46 0 0 3.82 -16.46 0 0 -3.82zm0 -12.32l14.29 0 0 3.82 -14.29 0 0 -3.82zm0 -12.52l16.46 0 0 3.83 -16.46 0 0 -3.83zm42.78 0l3.76 0 0 28.66 -3.92 0 0 -21.46 0.2 1.26 -7.06 16.22 -2.8 0 -7.06 -15.83 0.2 -1.65 0 21.46 -3.92 0 0 -28.66 3.76 0 8.42 18.93 8.42 -18.93zm13.23 24.94l7.77 0c2.04,0 3.52,-0.39 4.45,-1.17 0.94,-0.77 1.4,-1.86 1.4,-3.27l0 -0.06c0,-0.97 -0.17,-1.8 -0.5,-2.5 -0.33,-0.69 -0.86,-1.23 -1.58,-1.61 -0.73,-0.37 -1.65,-0.56 -2.78,-0.56l-8.76 0 0 -3.63 8.76 0c1.48,0 2.6,-0.35 3.35,-1.04 0.76,-0.7 1.14,-1.73 1.14,-3.09l0 0c0,-1.44 -0.42,-2.51 -1.26,-3.22 -0.85,-0.71 -2.1,-1.06 -3.79,-1.06l-8.2 0 0 -3.73 8.93 0c1.85,0 3.41,0.31 4.65,0.95 1.25,0.63 2.19,1.52 2.8,2.68 0.62,1.15 0.93,2.53 0.93,4.14l0 0c0,0.98 -0.19,1.91 -0.57,2.77 -0.38,0.86 -0.96,1.59 -1.75,2.2 -0.78,0.62 -1.75,1.03 -2.9,1.23 1.15,0.18 2.15,0.59 2.99,1.24 0.84,0.65 1.49,1.46 1.93,2.43 0.45,0.98 0.68,2.03 0.68,3.16l0 0.06c0,1.55 -0.35,2.91 -1.03,4.1 -0.68,1.18 -1.67,2.1 -2.94,2.74 -1.27,0.64 -2.76,0.96 -4.45,0.96l-9.27 0 0 -3.72zm-2.37 -24.94l4.01 0 0 28.66 -4.01 0 0 -28.66zm27.82 12.72l9.78 0c0.76,0 1.44,-0.19 2.03,-0.56 0.59,-0.37 1.05,-0.88 1.37,-1.56 0.32,-0.68 0.48,-1.46 0.48,-2.34l0 0c0,-0.88 -0.16,-1.66 -0.48,-2.33 -0.32,-0.68 -0.78,-1.21 -1.36,-1.57 -0.58,-0.37 -1.27,-0.55 -2.04,-0.55l-9.78 0 0 -3.83 9.62 0c1.66,0 3.11,0.34 4.37,1.03 1.25,0.68 2.23,1.65 2.92,2.9 0.69,1.26 1.03,2.71 1.03,4.35l0 0c0,1.64 -0.35,3.09 -1.04,4.35 -0.7,1.25 -1.68,2.22 -2.93,2.91 -1.26,0.68 -2.7,1.02 -4.35,1.02l-9.62 0 0 -3.82zm-1.75 -12.74l4.02 0 0 28.68 -4.02 0 0 -28.68zm9.56 15.67l4 -0.9 7.34 13.91 -4.77 0 -6.57 -13.01zm23.59 -15.65l3.42 0 10.57 28.66 -4.34 0 -7.95 -23.12 -7.94 23.12 -4.34 0 10.58 -28.66zm-5.71 18.55l15.09 0 0 3.82 -15.09 0 0 -3.82zm31.84 10.41c-1.98,0 -3.73,-0.44 -5.23,-1.32 -1.51,-0.88 -2.68,-2.13 -3.5,-3.75 -0.83,-1.61 -1.25,-3.49 -1.25,-5.62l0 -7.86c0,-2.13 0.42,-4.01 1.25,-5.62 0.82,-1.62 1.99,-2.87 3.5,-3.76 1.5,-0.88 3.25,-1.33 5.23,-1.33 1.64,0 3.16,0.36 4.54,1.06 1.38,0.71 2.53,1.69 3.46,2.99 0.92,1.28 1.55,2.77 1.88,4.47l0 0 -4.13 0 0 0c-0.24,-0.89 -0.66,-1.7 -1.25,-2.39 -0.58,-0.71 -1.27,-1.25 -2.06,-1.63 -0.78,-0.38 -1.6,-0.57 -2.44,-0.57 -1.17,0 -2.19,0.28 -3.07,0.84 -0.88,0.57 -1.57,1.36 -2.06,2.38 -0.48,1.02 -0.72,2.21 -0.72,3.56l0 7.86c0,1.34 0.24,2.53 0.72,3.55 0.49,1.03 1.18,1.82 2.06,2.38 0.88,0.56 1.9,0.84 3.07,0.84 0.86,0 1.67,-0.18 2.46,-0.53 0.78,-0.36 1.46,-0.88 2.04,-1.59 0.59,-0.69 1.01,-1.52 1.25,-2.48l0 0 4.13 0 0 0c-0.33,1.7 -0.96,3.19 -1.9,4.48 -0.93,1.29 -2.08,2.28 -3.46,2.98 -1.38,0.71 -2.89,1.06 -4.52,1.06zm15.2 -28.96l4.02 0 0 28.66 -4.02 0 0 -28.66zm1.95 24.84l16.46 0 0 3.82 -16.46 0 0 -3.82zm0 -12.32l14.29 0 0 3.82 -14.29 0 0 -3.82zm0 -12.52l16.46 0 0 3.83 -16.46 0 0 -3.83z"/>
   <path class="fil1" d="M152.08 308.9l7.25 0 0 47.45 -7.25 0 0 -47.45zm-14.62 -4.24l36.47 0 0 6.91 -36.47 0 0 -6.91zm72.94 0l7.26 0 0 51.69 -7.26 0 0 -51.69zm-29.36 0l7.26 0 0 51.69 -7.26 0 0 -51.69zm4.52 22.79l28.69 0 0 6.9 -28.69 0 0 -6.9zm44.88 -22.79l7.26 0 0 51.69 -7.26 0 0 -51.69zm3.52 44.79l29.69 0 0 6.9 -29.69 0 0 -6.9zm0 -22.21l25.77 0 0 6.89 -25.77 0 0 -6.89zm0 -22.58l29.69 0 0 6.91 -29.69 0 0 -6.91zm81.47 0l4.97 0 10.6 40.52 9.13 -40.52 7.53 0 -12.61 51.69 -7.39 0 -9.52 -36.12 -9.97 36.12 -7.38 0 -12.62 -51.69 7.53 0 9.14 40.52 10.59 -40.52zm47.3 51.69l-7.25 0 0 -51.69 7.25 0 0 51.69zm12.79 -51.69l6.58 0 25.27 39.95 -0.85 0.93 0 -40.88 7.18 0 0 51.65 -6.65 0 -25.2 -39.35 0.85 -0.92 0 40.27 -7.18 0 0 -51.65zm55.88 44.79l11.7 0c3.81,0 6.77,-0.99 8.85,-2.97 2.1,-1.98 3.16,-4.77 3.16,-8.37l0 -15.21c0,-3.61 -1.06,-6.4 -3.16,-8.37 -2.08,-1.98 -5.04,-2.96 -8.85,-2.96l-11.7 0 0 -6.91 11.48 0c4.15,0 7.69,0.73 10.63,2.17 2.93,1.45 5.18,3.56 6.72,6.33 1.54,2.77 2.3,6.11 2.3,10.03l0 14.64c0,3.91 -0.76,7.24 -2.3,10.02 -1.54,2.77 -3.79,4.88 -6.75,6.32 -2.95,1.45 -6.49,2.18 -10.64,2.18l-11.44 0 0 -6.9zm-4.91 -44.79l7.25 0 0 51.69 -7.25 0 0 -51.69z"/>
   <path class="fil2" d="M452.08 232.82c-21.43,17.78 -67.09,26.75 -52.24,57.69 1.16,2.43 2.7,4.99 4.65,7.7 -19.51,-19.09 -24.67,-41.93 6.99,-60.07 16.43,-9.43 33.59,-18.07 50.9,-26.49 1.06,8.69 -3.35,15.4 -10.3,21.17l0 0z"/>
   <path id="1" class="fil4" style="mask:url(#id0)" d="M452.08 232.82c-21.43,17.78 -67.09,26.75 -52.24,57.69 1.16,2.43 2.7,4.99 4.65,7.7 -13.36,-14.02 -13.01,-28.4 -5.49,-36.51 12.34,-13.31 58.11,-31.68 52.57,-44.74 3.59,-1.79 7.2,-3.55 10.81,-5.31 1.06,8.69 -3.35,15.4 -10.3,21.17l0 0z"/>
   <path class="fil5" d="M399.84 290.51c-14.85,-30.94 30.81,-39.91 52.24,-57.69 1.65,8.27 -1.92,14.63 -7.87,19.98 -15.75,14.16 -48.16,21.21 -44.37,37.71l0 0z"/>
   <path id="1" class="fil4" style="mask:url(#id2)" d="M444.45 238.28c2.75,-1.75 5.33,-3.55 7.63,-5.46l0 0c1.65,8.27 -1.92,14.63 -7.87,19.98 -15.75,14.15 -48.16,21.21 -44.37,37.71 -7.54,-27.68 44.22,-30.54 44.61,-52.23l0 0z"/>
   <path class="fil7" d="M399.84 290.51c-3.79,-16.5 28.62,-23.56 44.37,-37.71 3.85,30.96 -47.19,24.94 -39.72,45.41 -1.95,-2.71 -3.49,-5.27 -4.65,-7.7z"/>
   <path id="1" class="fil4" style="mask:url(#id4)" d="M437.9 257.62c2.28,-1.52 4.42,-3.12 6.31,-4.82 3.85,30.96 -47.19,24.94 -39.72,45.41 -12.58,-20.9 37.16,-21.46 33.41,-40.59l0 0z"/>
   <path id="1" class="fil10" style="mask:url(#id6)" d="M399.84 290.51c-3.79,-16.5 28.62,-23.56 44.37,-37.71 0.13,1.08 0.2,2.12 0.2,3.12l0 0.15c0,0.58 -0.02,1.15 -0.07,1.71 -17.25,11.72 -47,16.77 -44.5,32.73z"/>
   <path id="1" class="fil10" style="mask:url(#id8)" d="M399.84 290.51c-14.85,-30.94 30.81,-39.91 52.24,-57.69 0.44,2.23 0.51,4.31 0.25,6.28 -22.98,13.84 -61.62,20.7 -52.79,48.68 0.25,0.79 0.52,1.6 0.85,2.42 0.99,2.51 2.34,5.17 4.1,8.01 -1.95,-2.71 -3.49,-5.27 -4.65,-7.7l0 0z"/>
   <path class="fil12" d="M322.74 232.82c21.43,17.78 67.09,26.75 52.24,57.69 -1.16,2.43 -2.7,4.99 -4.65,7.7 19.51,-19.09 24.66,-41.93 -6.99,-60.07 -16.44,-9.43 -33.59,-18.07 -50.9,-26.49 -1.06,8.69 3.34,15.4 10.3,21.17l0 0z"/>
   <path id="1" class="fil4" style="mask:url(#id10)" d="M322.74 232.82c21.43,17.78 67.09,26.75 52.24,57.69 -1.16,2.43 -2.7,4.99 -4.65,7.7 13.36,-14.02 13.01,-28.4 5.49,-36.51 -12.35,-13.31 -58.11,-31.68 -52.57,-44.74 -3.6,-1.79 -7.2,-3.55 -10.81,-5.31 -1.06,8.69 3.34,15.4 10.3,21.17l0 0z"/>
   <path class="fil14" d="M374.98 290.51c14.85,-30.94 -30.81,-39.91 -52.24,-57.69 -1.65,8.27 1.92,14.63 7.87,19.98 15.75,14.16 48.16,21.21 44.37,37.71l0 0z"/>
   <path id="1" class="fil4" style="mask:url(#id12)" d="M330.37 238.28c-2.75,-1.75 -5.33,-3.55 -7.63,-5.46l0 0c-1.65,8.27 1.92,14.63 7.87,19.98 15.75,14.15 48.16,21.21 44.37,37.71 7.53,-27.68 -44.23,-30.54 -44.61,-52.23l0 0z"/>
   <path class="fil16" d="M374.98 290.51c3.79,-16.5 -28.62,-23.56 -44.37,-37.71 -3.86,30.96 47.19,24.94 39.72,45.41 1.95,-2.71 3.49,-5.27 4.65,-7.7z"/>
   <path id="1" class="fil4" style="mask:url(#id14)" d="M336.92 257.62c-2.29,-1.52 -4.42,-3.12 -6.31,-4.82 -3.86,30.96 47.19,24.94 39.72,45.41 12.58,-20.9 -37.17,-21.46 -33.41,-40.59l0 0z"/>
   <path id="1" class="fil10" style="mask:url(#id16)" d="M374.98 290.51c3.79,-16.5 -28.62,-23.56 -44.37,-37.71 -0.14,1.08 -0.2,2.12 -0.2,3.12l0 0.15c0,0.58 0.02,1.15 0.06,1.71 17.26,11.72 47,16.77 44.51,32.73z"/>
   <path id="1" class="fil10" style="mask:url(#id18)" d="M374.98 290.51c14.85,-30.94 -30.81,-39.91 -52.24,-57.69 -0.44,2.23 -0.51,4.31 -0.25,6.28 22.98,13.84 61.62,20.7 52.79,48.68 -0.25,0.79 -0.53,1.6 -0.85,2.42 -0.99,2.51 -2.35,5.17 -4.1,8.01 1.95,-2.71 3.49,-5.27 4.65,-7.7l0 0z"/>
  </g>
 </g>
</svg>
