<svg xmlns="http://www.w3.org/2000/svg" xmlns:xlink="http://www.w3.org/1999/xlink" xmlns:inkscape="http://www.inkscape.org/namespaces/inkscape" version="1.1" width="720" height="720" viewBox="0 0 720 720">
<defs>
<clipPath id="clip_0">
<path transform="matrix(1,0,0,-1,0,720)" d="M0 .028H719.971V719.999H0Z" clip-rule="evenodd"/>
</clipPath>
<clipPath id="clip_1">
<path transform="matrix(1,0,0,-1,0,720)" d="M504.073 423.637C483.749 406.771 440.52 398.267 454.552 368.929 455.657 366.633 457.103 364.195 458.945 361.644 440.492 379.729 435.616 401.385 465.607 418.563 481.169 427.521 497.44 435.713 513.853 443.678 514.845 435.458 510.678 429.108 504.073 423.637Z" clip-rule="evenodd"/>
</clipPath>
<clipPath id="clip_2">
<path transform="matrix(1,0,0,-1,0,720)" d="M454.562 368.957C440.53 398.296 483.787 406.771 504.083 423.637 505.642 415.814 502.24 409.776 496.628 404.702 481.689 391.294 450.99 384.604 454.562 368.957Z" clip-rule="evenodd"/>
</clipPath>
<clipPath id="clip_3">
<path transform="matrix(1,0,0,-1,0,720)" d="M454.567 368.929C450.995 384.604 481.694 391.266 496.633 404.702 500.289 375.363 451.902 381.061 458.96 361.644 457.118 364.223 455.672 366.633 454.567 368.929Z" clip-rule="evenodd"/>
</clipPath>
<clipPath id="clip_4">
<path transform="matrix(1,0,0,-1,0,720)" d="M381.518 423.637C401.843 406.771 445.128 398.267 431.068 368.929 429.962 366.633 428.517 364.195 426.646 361.644 445.128 379.729 450.032 401.385 420.013 418.563 404.422 427.521 388.151 435.713 371.767 443.678 370.775 435.458 374.942 429.108 381.518 423.637Z" clip-rule="evenodd"/>
</clipPath>
<clipPath id="clip_5">
<path transform="matrix(1,0,0,-1,0,720)" d="M431.067 368.957C445.126 398.296 401.841 406.771 381.545 423.637 380.015 415.814 383.36 409.776 389.001 404.702 403.911 391.294 434.638 384.604 431.067 368.957Z" clip-rule="evenodd"/>
</clipPath>
<clipPath id="clip_6">
<path transform="matrix(1,0,0,-1,0,720)" d="M431.086 368.929C434.686 384.604 403.958 391.266 388.991 404.702 385.391 375.363 433.779 381.061 426.692 361.644 428.534 364.223 429.98 366.633 431.086 368.929Z" clip-rule="evenodd"/>
</clipPath>
</defs>
<g clip-path="url(#clip_0)">
<path transform="matrix(1,0,0,-1,0,720)" d="M0 720H719.972V.028H0V720Z" fill="#ffffff" fill-rule="evenodd"/>
<path transform="matrix(1,0,0,-1,0,720)" d="M208.006 287.972H206.419C206.476 289.644 207.014 290.976 208.035 291.997 209.083 293.046 210.359 293.556 211.89 293.556 213.392 293.556 214.611 293.074 215.546 292.11 216.482 291.118 216.964 289.984 216.964 288.624 216.964 287.688 216.737 286.809 216.283 285.987 215.83 285.165 214.98 284.06 213.676 282.671L209.594 278.22H217.191V276.661H206.05L212.315 283.465C213.562 284.825 214.384 285.846 214.781 286.498 215.15 287.15 215.348 287.858 215.348 288.595 215.348 289.531 215.008 290.353 214.328 291.005 213.647 291.685 212.797 292.025 211.805 292.025 210.756 292.025 209.877 291.657 209.197 290.948 208.488 290.268 208.091 289.276 208.006 287.972ZM208.006 287.972V287.972ZM238.819 282.756 239.953 281.565C239.216 280.942 238.535 280.375 237.912 279.921 238.337 279.496 238.904 278.929 239.641 278.22 240.208 277.654 240.69 277.143 241.115 276.661H238.819L236.636 278.901C235.276 277.795 234.142 277.087 233.291 276.746 232.441 276.406 231.534 276.265 230.598 276.265 229.323 276.265 228.302 276.605 227.537 277.342 226.772 278.05 226.375 278.957 226.375 280.063 226.375 280.885 226.63 281.707 227.169 282.529 227.679 283.351 228.728 284.4 230.315 285.647 229.408 286.753 228.841 287.546 228.586 288.057 228.359 288.595 228.217 289.077 228.217 289.587 228.217 290.409 228.529 291.09 229.153 291.628 229.89 292.252 230.797 292.564 231.874 292.564 232.583 292.564 233.206 292.422 233.773 292.139 234.312 291.883 234.765 291.515 235.049 291.033 235.361 290.58 235.502 290.069 235.502 289.559 235.502 288.964 235.304 288.397 234.907 287.773 234.539 287.15 233.773 286.356 232.611 285.364L235.106 282.756 236.75 281.112C237.628 281.764 238.309 282.302 238.819 282.756ZM238.819 282.756V282.756ZM231.619 286.611C232.413 287.235 233.008 287.83 233.405 288.425 233.688 288.85 233.83 289.219 233.83 289.587 233.83 289.956 233.631 290.296 233.263 290.58 232.923 290.835 232.413 290.976 231.817 290.976 231.222 290.976 230.769 290.835 230.4 290.551 230.031 290.268 229.833 289.928 229.833 289.559 229.833 289.219 229.918 288.935 230.06 288.68 230.428 288.057 230.939 287.348 231.619 286.611ZM231.619 286.611V286.611ZM231.392 284.4C230.003 283.351 229.096 282.529 228.671 281.906 228.217 281.282 228.019 280.715 228.019 280.148 228.019 279.524 228.274 278.986 228.813 278.504 229.351 278.022 229.975 277.795 230.74 277.795 231.335 277.795 231.902 277.909 232.469 278.135 233.348 278.532 234.34 279.184 235.474 280.063L232.894 282.756C232.441 283.238 231.931 283.776 231.392 284.4ZM231.392 284.4V284.4ZM251.093 289.332H249.392C249.704 290.693 250.271 291.742 251.15 292.479 252 293.216 253.02 293.556 254.183 293.556 255.061 293.556 255.855 293.386 256.592 292.989 257.329 292.592 257.896 292.054 258.293 291.402 258.718 290.75 258.917 290.041 258.917 289.332 258.917 287.887 258.208 286.753 256.819 285.931 257.613 285.619 258.265 285.137 258.746 284.513 259.455 283.663 259.824 282.671 259.824 281.594 259.824 280.658 259.597 279.751 259.087 278.901 258.605 278.05 257.924 277.398 257.074 276.945 256.224 276.491 255.288 276.265 254.239 276.265 252.822 276.265 251.631 276.661 250.696 277.483 249.761 278.306 249.137 279.496 248.825 281.112H250.441C250.724 280.006 251.121 279.241 251.66 278.759 252.34 278.164 253.191 277.852 254.239 277.852 255.43 277.852 256.394 278.22 257.131 278.929 257.839 279.638 258.208 280.488 258.208 281.452 258.208 282.104 258.009 282.699 257.669 283.266 257.301 283.833 256.819 284.23 256.224 284.513 255.6 284.797 254.665 284.967 253.389 285.052V286.554C254.154 286.554 254.835 286.696 255.458 286.951 256.082 287.206 256.507 287.546 256.791 287.972 257.074 288.369 257.216 288.822 257.216 289.332 257.216 290.041 256.932 290.665 256.365 291.175 255.798 291.713 255.09 291.969 254.211 291.969 253.502 291.969 252.907 291.77 252.397 291.373 251.858 290.976 251.433 290.296 251.093 289.332ZM251.093 289.332V289.332ZM269.093 293.159H272.324C273.657 293.159 274.649 293.017 275.357 292.706 276.038 292.394 276.605 291.912 277.002 291.26 277.427 290.636 277.625 289.928 277.625 289.106 277.625 288.369 277.427 287.717 277.087 287.121 276.718 286.526 276.208 286.044 275.528 285.647 276.378 285.364 277.03 285.024 277.483 284.627 277.937 284.258 278.306 283.776 278.561 283.209 278.816 282.671 278.929 282.047 278.929 281.424 278.929 280.063 278.476 278.957 277.483 278.022 276.52 277.115 275.244 276.661 273.6 276.661H269.093V293.159ZM269.093 293.159V293.159ZM270.709 291.543V286.271H271.644C272.778 286.271 273.628 286.356 274.167 286.583 274.706 286.781 275.131 287.121 275.443 287.575 275.754 288.057 275.924 288.567 275.924 289.106 275.924 289.899 275.669 290.494 275.131 290.92 274.592 291.345 273.77 291.543 272.608 291.543H270.709ZM270.709 291.543V291.543ZM270.709 284.627V278.277H272.75C273.94 278.277 274.819 278.391 275.386 278.617 275.953 278.844 276.406 279.213 276.746 279.723 277.087 280.233 277.257 280.8 277.257 281.367 277.257 282.104 277.002 282.756 276.52 283.294 276.066 283.833 275.386 284.202 274.564 284.4 273.997 284.542 273.033 284.627 271.644 284.627H270.709ZM270.709 284.627V284.627ZM282.161 293.159H283.861V286.243H292.224V293.159H293.868V276.661H292.224V284.627H283.861V276.661H282.161V293.159ZM282.161 293.159V293.159ZM297.865 293.159H299.537V286.951L306.113 293.159H308.353L300.416 285.761 308.948 276.661H306.765L299.537 284.372V276.661H297.865V293.159ZM297.865 293.159V293.159ZM325.559 293.556C328.054 293.556 330.151 292.734 331.824 291.09 333.496 289.417 334.318 287.348 334.318 284.91 334.318 282.501 333.496 280.431 331.824 278.759 330.151 277.087 328.11 276.265 325.701 276.265 323.263 276.265 321.222 277.087 319.521 278.759 317.849 280.431 317.027 282.472 317.027 284.825 317.027 286.413 317.395 287.887 318.161 289.219 318.926 290.608 319.975 291.657 321.279 292.422 322.611 293.187 324.028 293.556 325.559 293.556ZM325.559 293.556V293.556ZM325.644 291.969C324.425 291.969 323.263 291.657 322.186 291.005 321.109 290.381 320.23 289.531 319.635 288.425 319.011 287.348 318.728 286.157 318.728 284.854 318.728 282.898 319.38 281.254 320.74 279.865 322.101 278.532 323.745 277.852 325.644 277.852 326.92 277.852 328.11 278.164 329.187 278.787 330.265 279.411 331.115 280.233 331.71 281.339 332.334 282.416 332.646 283.606 332.646 284.91 332.646 286.214 332.334 287.405 331.71 288.454 331.115 289.531 330.265 290.381 329.159 291.005 328.054 291.657 326.891 291.969 325.644 291.969ZM325.644 291.969V291.969ZM337.635 293.159H340.894C342.794 293.159 344.041 293.074 344.721 292.904 345.657 292.677 346.422 292.195 347.017 291.487 347.613 290.778 347.896 289.871 347.896 288.737 347.896 287.66 347.613 286.753 347.046 286.044 346.45 285.335 345.657 284.854 344.636 284.598 343.871 284.428 342.482 284.343 340.441 284.343H339.279V276.661H337.635V293.159ZM337.635 293.159V293.159ZM339.279 291.543V285.931L342.057 285.902C343.191 285.902 344.013 286.016 344.523 286.214 345.061 286.413 345.458 286.753 345.77 287.206 346.054 287.66 346.224 288.17 346.224 288.737 346.224 289.332 346.054 289.843 345.77 290.296 345.458 290.75 345.061 291.061 344.58 291.26 344.098 291.458 343.304 291.543 342.17 291.543H339.279ZM339.279 291.543V291.543ZM351.241 293.159H352.885V283.209C352.885 282.019 352.913 281.282 352.97 280.998 353.055 280.318 353.225 279.78 353.537 279.354 353.82 278.901 354.274 278.532 354.898 278.249 355.521 277.965 356.145 277.795 356.769 277.795 357.307 277.795 357.846 277.937 358.328 278.164 358.838 278.391 359.263 278.702 359.603 279.128 359.915 279.524 360.17 280.035 360.312 280.63 360.425 281.055 360.482 281.906 360.482 283.209V293.159H362.154V283.209C362.154 281.735 361.984 280.517 361.701 279.609 361.417 278.731 360.85 277.937 360 277.257 359.121 276.576 358.072 276.265 356.854 276.265 355.521 276.265 354.387 276.576 353.452 277.2 352.488 277.824 351.865 278.674 351.553 279.723 351.354 280.346 351.241 281.537 351.241 283.209V293.159ZM351.241 293.159V293.159ZM366.18 293.159H367.824V278.277H374.145V276.661H366.18V293.159ZM366.18 293.159V293.159ZM376.753 293.159H386.164V291.543H378.425V286.384H386.107V284.769H378.425V278.277H386.107V276.661H376.753V293.159ZM376.753 293.159V293.159ZM389.027 276.661V293.159H389.395L400.337 280.517V293.159H401.981V276.661H401.584L390.728 289.162V276.661H389.027ZM389.027 276.661V276.661ZM421.257 290.126 419.953 289.106C419.244 290.069 418.394 290.778 417.402 291.26 416.381 291.713 415.304 291.969 414.085 291.969 412.781 291.969 411.562 291.657 410.457 291.033 409.323 290.381 408.472 289.531 407.849 288.454 407.254 287.405 406.942 286.186 406.942 284.882 406.942 282.869 407.622 281.197 408.983 279.836 410.372 278.476 412.101 277.795 414.198 277.795 416.494 277.795 418.422 278.702 419.953 280.517L421.257 279.524C420.435 278.476 419.414 277.682 418.195 277.115 416.976 276.548 415.587 276.265 414.085 276.265 411.222 276.265 408.954 277.2 407.282 279.128 405.893 280.772 405.184 282.728 405.184 284.995 405.184 287.405 406.035 289.474 407.735 291.118 409.408 292.762 411.534 293.556 414.057 293.556 415.587 293.556 416.976 293.272 418.224 292.677 419.471 292.054 420.463 291.203 421.257 290.126ZM421.257 290.126V290.126ZM424.573 293.159H433.984V291.543H426.217V286.384H433.928V284.769H426.217V278.277H433.928V276.661H424.573V293.159ZM424.573 293.159V293.159ZM443.197 293.159H444.841V278.277H451.191V276.661H443.197V293.159ZM443.197 293.159V293.159ZM453.543 293.159H455.187V276.661H453.543V293.159ZM453.543 293.159V293.159ZM457.71 293.159H459.496L464.967 280.375 470.494 293.159H472.28L465.137 276.661H464.769L457.71 293.159ZM457.71 293.159V293.159ZM474.803 293.159H476.447V276.661H474.803V293.159ZM474.803 293.159V293.159ZM480.217 276.661V293.159H480.586L491.499 280.517V293.159H493.143V276.661H492.775L481.918 289.162V276.661H480.217ZM480.217 276.661V276.661ZM513.014 290.409 511.739 289.162C510.831 290.098 509.811 290.778 508.734 291.26 507.628 291.713 506.551 291.94 505.502 291.94 504.227 291.94 502.98 291.628 501.817 291.005 500.655 290.353 499.748 289.502 499.096 288.397 498.444 287.291 498.132 286.157 498.132 284.939 498.132 283.72 498.472 282.529 499.124 281.424 499.805 280.29 500.712 279.411 501.874 278.759 503.065 278.135 504.34 277.795 505.729 277.795 507.43 277.795 508.876 278.277 510.038 279.241 511.2 280.176 511.909 281.452 512.135 282.954H506.891V284.57H513.978C513.95 282.019 513.213 279.978 511.71 278.504 510.208 277.002 508.224 276.265 505.701 276.265 502.668 276.265 500.258 277.285 498.472 279.354 497.112 280.97 496.431 282.813 496.431 284.91 496.431 286.469 496.8 287.915 497.594 289.304 498.387 290.636 499.465 291.685 500.825 292.45 502.186 293.187 503.745 293.556 505.474 293.556 506.863 293.556 508.167 293.329 509.414 292.819 510.633 292.309 511.852 291.515 513.014 290.409Z" fill="#6e6f70" fill-rule="evenodd"/>
<path transform="matrix(1,0,0,-1,0,720)" d="M206.022 397.077H209.82V369.865H206.022V397.077ZM206.022 397.077V397.077ZM207.865 373.465H223.455V369.865H207.865V373.465ZM207.865 373.465V373.465ZM207.865 385.172H221.386V381.543H207.865V385.172ZM207.865 385.172V385.172ZM207.865 397.077H223.455V393.449H207.865V397.077ZM207.865 397.077V397.077ZM248.428 397.077H251.972V369.865H248.258V390.217L248.457 389.027 241.739 373.635H239.074L232.413 388.658 232.583 390.217V369.865H228.869V397.077H232.441L240.406 379.106 248.428 397.077ZM248.428 397.077V397.077ZM260.957 373.38H268.299C270.227 373.38 271.644 373.748 272.523 374.485 273.402 375.222 273.855 376.243 273.855 377.603V377.66C273.855 378.595 273.685 379.389 273.373 380.041 273.061 380.693 272.551 381.203 271.871 381.572 271.191 381.912 270.312 382.082 269.235 382.082H260.957V385.54H269.235C270.652 385.54 271.701 385.852 272.409 386.532 273.146 387.184 273.487 388.148 273.487 389.452 273.487 390.841 273.09 391.861 272.296 392.513 271.502 393.194 270.312 393.534 268.724 393.534H260.957V397.077H269.405C271.162 397.077 272.636 396.765 273.798 396.17 274.989 395.575 275.896 394.724 276.463 393.619 277.058 392.542 277.342 391.238 277.342 389.679 277.342 388.743 277.172 387.865 276.803 387.043 276.435 386.249 275.896 385.54 275.159 384.973 274.422 384.378 273.487 383.981 272.409 383.811 273.487 383.641 274.45 383.244 275.244 382.62 276.038 382.025 276.633 381.231 277.058 380.324 277.483 379.389 277.71 378.397 277.71 377.32V377.263C277.71 375.789 277.37 374.485 276.718 373.351 276.094 372.246 275.159 371.367 273.94 370.772 272.75 370.148 271.332 369.865 269.717 369.865H260.957V373.38ZM260.957 373.38V373.38ZM258.718 397.077H262.488V369.865H258.718V397.077ZM258.718 397.077V397.077ZM285.052 385.002H294.321C295.03 385.002 295.682 385.172 296.249 385.512 296.816 385.852 297.241 386.362 297.553 386.986 297.836 387.638 298.006 388.375 298.006 389.197 298.006 390.047 297.836 390.813 297.553 391.436 297.241 392.088 296.816 392.598 296.249 392.939 295.71 393.279 295.058 393.449 294.321 393.449H285.052V397.077H294.18C295.739 397.077 297.128 396.765 298.318 396.113 299.509 395.461 300.416 394.554 301.068 393.364 301.72 392.173 302.06 390.784 302.06 389.197 302.06 387.666 301.72 386.277 301.068 385.087 300.387 383.896 299.48 382.989 298.29 382.337 297.099 381.685 295.739 381.373 294.18 381.373H285.052V385.002ZM285.052 385.002V385.002ZM283.38 397.077H287.206V369.865H283.38V397.077ZM283.38 397.077V397.077ZM292.45 382.224 296.249 383.074 303.194 369.865H298.687L292.45 382.224ZM292.45 382.224V382.224ZM314.787 397.077H318.047L328.054 369.865H323.943L316.403 391.833 308.891 369.865H304.781L314.787 397.077ZM314.787 397.077V397.077ZM309.402 379.474H323.688V375.817H309.402V379.474ZM309.402 379.474V379.474ZM339.591 369.581C337.691 369.581 336.047 369.978 334.63 370.828 333.184 371.65 332.079 372.841 331.313 374.372 330.52 375.902 330.123 377.717 330.123 379.729V387.184C330.123 389.197 330.52 391.011 331.313 392.513 332.079 394.044 333.184 395.235 334.63 396.085 336.047 396.935 337.691 397.332 339.591 397.332 341.15 397.332 342.567 397.02 343.871 396.34 345.175 395.688 346.28 394.753 347.159 393.506 348.038 392.287 348.633 390.869 348.945 389.254H345.033C344.806 390.104 344.409 390.869 343.843 391.55 343.304 392.202 342.652 392.712 341.887 393.08 341.15 393.449 340.384 393.619 339.591 393.619 338.485 393.619 337.493 393.364 336.671 392.825 335.82 392.287 335.197 391.55 334.715 390.586 334.261 389.565 334.035 388.46 334.035 387.184V379.729C334.035 378.454 334.261 377.32 334.715 376.328 335.197 375.364 335.82 374.627 336.671 374.088 337.493 373.55 338.485 373.294 339.591 373.294 340.384 373.294 341.178 373.465 341.915 373.805 342.652 374.117 343.304 374.627 343.843 375.279 344.409 375.959 344.806 376.753 345.033 377.66H348.945C348.633 376.044 348.038 374.627 347.131 373.408 346.252 372.189 345.175 371.225 343.871 370.573 342.567 369.893 341.121 369.581 339.591 369.581ZM339.591 369.581V369.581ZM353.991 397.077H357.789V369.865H353.991V397.077ZM353.991 397.077V397.077ZM355.833 373.465H371.424V369.865H355.833V373.465ZM355.833 373.465V373.465ZM355.833 385.172H369.354V381.543H355.833V385.172ZM355.833 385.172V385.172ZM355.833 397.077H371.424V393.449H355.833V397.077Z" fill="#1b1918" fill-rule="evenodd"/>
<path transform="matrix(1,0,0,-1,0,720)" d="M219.855 351.581H226.715V306.595H219.855V351.581ZM219.855 351.581V351.581ZM206.022 355.578H240.548V349.058H206.022V355.578ZM206.022 355.578V355.578ZM275.102 355.578H281.962V306.595H275.102V355.578ZM275.102 355.578V355.578ZM247.294 355.578H254.154V306.595H247.294V355.578ZM247.294 355.578V355.578ZM251.575 334.006H278.759V327.43H251.575V334.006ZM251.575 334.006V334.006ZM294.094 355.578H300.954V306.595H294.094V355.578ZM294.094 355.578V355.578ZM297.411 313.143H325.531V306.595H297.411V313.143ZM297.411 313.143V313.143ZM297.411 334.205H321.817V327.657H297.411V334.205ZM297.411 334.205V334.205ZM297.411 355.578H325.531V349.058H297.411V355.578ZM297.411 355.578V355.578ZM374.627 355.578H379.332L389.367 317.169 398.013 355.578H405.156L393.194 306.595H386.22L377.178 340.838 367.739 306.595H360.737L348.775 355.578H355.918L364.592 317.169 374.627 355.578ZM374.627 355.578V355.578ZM419.443 306.595H412.554V355.578H419.443V306.595ZM419.443 306.595V306.595ZM431.546 355.578H437.783L461.707 317.707 460.913 316.857V355.578H467.717V306.652H461.424L437.556 343.928 438.35 344.806V306.652H431.546V355.578ZM431.546 355.578V355.578ZM484.469 313.143H495.553C499.181 313.143 501.959 314.079 503.943 315.95 505.928 317.82 506.948 320.457 506.948 323.887V338.315C506.948 341.745 505.928 344.381 503.943 346.252 501.959 348.123 499.181 349.058 495.553 349.058H484.469V355.578H495.354C499.294 355.578 502.639 354.898 505.417 353.537 508.195 352.176 510.321 350.164 511.795 347.556 513.241 344.92 513.978 341.745 513.978 338.031V324.142C513.978 320.428 513.241 317.282 511.795 314.646 510.321 312.038 508.195 310.025 505.389 308.665 502.611 307.304 499.238 306.595 495.326 306.595H484.469V313.143ZM484.469 313.143V313.143ZM479.82 355.578H486.709V306.595H479.82V355.578Z" fill="#1b1918" fill-rule="evenodd"/>
</g>
<g clip-path="url(#clip_1)">
<path transform="matrix(1,0,0,-1,0,720)" d="M444.104 443.679H514.006V361.644H444.104V443.679Z" fill="#d02715" fill-rule="evenodd"/>
<path transform="matrix(1,0,0,-1,0,720)" d="M460.97 333.468 411.562 426.387 498.586 472.649 547.994 379.729 460.97 333.468Z" fill="#d12915" fill-rule="evenodd"/>
<path transform="matrix(1,0,0,-1,0,720)" d="M462.472 334.233 413.036 427.153 498.586 472.649 547.994 379.729 462.472 334.233Z" fill="#d12b14" fill-rule="evenodd"/>
<path transform="matrix(1,0,0,-1,0,720)" d="M463.946 335.027 414.51 427.946 498.586 472.649 547.994 379.729 463.946 335.027Z" fill="#d22d14" fill-rule="evenodd"/>
<path transform="matrix(1,0,0,-1,0,720)" d="M465.42 335.82 416.013 428.74 498.586 472.649 547.994 379.729 465.42 335.82Z" fill="#d32f14" fill-rule="evenodd"/>
<path transform="matrix(1,0,0,-1,0,720)" d="M466.894 336.586 417.487 429.506 498.586 472.649 547.994 379.729 466.894 336.586Z" fill="#d33113" fill-rule="evenodd"/>
<path transform="matrix(1,0,0,-1,0,720)" d="M468.369 337.38 418.961 430.299 498.586 472.649 547.994 379.729 468.369 337.38Z" fill="#d43313" fill-rule="evenodd"/>
<path transform="matrix(1,0,0,-1,0,720)" d="M469.843 338.173 420.435 431.093 498.586 472.649 547.994 379.729 469.843 338.173Z" fill="#d53513" fill-rule="evenodd"/>
<path transform="matrix(1,0,0,-1,0,720)" d="M471.317 338.939 421.909 431.858 498.586 472.649 547.994 379.729 471.317 338.939Z" fill="#d53712" fill-rule="evenodd"/>
<path transform="matrix(1,0,0,-1,0,720)" d="M472.791 339.732 423.383 432.652 498.586 472.649 547.994 379.729 472.791 339.732Z" fill="#d63912" fill-rule="evenodd"/>
<path transform="matrix(1,0,0,-1,0,720)" d="M474.265 340.526 424.857 433.446 498.586 472.649 547.994 379.729 474.265 340.526Z" fill="#d63b11" fill-rule="evenodd"/>
<path transform="matrix(1,0,0,-1,0,720)" d="M475.739 341.291 426.331 434.211 498.586 472.649 547.994 379.729 475.739 341.291Z" fill="#d73d11" fill-rule="evenodd"/>
<path transform="matrix(1,0,0,-1,0,720)" d="M477.213 342.085 427.805 435.005 498.586 472.649 547.994 379.729 477.213 342.085Z" fill="#d83f11" fill-rule="evenodd"/>
<path transform="matrix(1,0,0,-1,0,720)" d="M478.687 342.879 429.279 435.798 498.586 472.649 547.994 379.729 478.687 342.879Z" fill="#d84110" fill-rule="evenodd"/>
<path transform="matrix(1,0,0,-1,0,720)" d="M480.161 343.644 430.753 436.564 498.586 472.649 547.994 379.729 480.161 343.644Z" fill="#d94310" fill-rule="evenodd"/>
<path transform="matrix(1,0,0,-1,0,720)" d="M481.635 344.438 432.227 437.357 498.586 472.649 547.994 379.729 481.635 344.438Z" fill="#da4510" fill-rule="evenodd"/>
<path transform="matrix(1,0,0,-1,0,720)" d="M483.109 345.231 433.701 438.151 498.586 472.649 547.994 379.729 483.109 345.231Z" fill="#da470f" fill-rule="evenodd"/>
<path transform="matrix(1,0,0,-1,0,720)" d="M484.583 345.997 435.175 438.917 498.586 472.649 547.994 379.729 484.583 345.997Z" fill="#db490f" fill-rule="evenodd"/>
<path transform="matrix(1,0,0,-1,0,720)" d="M486.057 346.791 436.649 439.71 498.586 472.649 547.994 379.729 486.057 346.791Z" fill="#dc4b0f" fill-rule="evenodd"/>
<path transform="matrix(1,0,0,-1,0,720)" d="M487.531 347.584 438.123 440.504 498.586 472.649 547.994 379.729 487.531 347.584Z" fill="#dc4d0e" fill-rule="evenodd"/>
<path transform="matrix(1,0,0,-1,0,720)" d="M489.005 348.35 439.597 441.269 498.586 472.649 547.994 379.729 489.005 348.35Z" fill="#dd4f0e" fill-rule="evenodd"/>
<path transform="matrix(1,0,0,-1,0,720)" d="M490.479 349.143 441.071 442.063 498.586 472.649 547.994 379.729 490.479 349.143Z" fill="#de510e" fill-rule="evenodd"/>
<path transform="matrix(1,0,0,-1,0,720)" d="M491.953 349.937 442.545 442.857 498.586 472.649 547.994 379.729 491.953 349.937Z" fill="#de530d" fill-rule="evenodd"/>
<path transform="matrix(1,0,0,-1,0,720)" d="M493.427 350.702 444.019 443.622 498.586 472.649 547.994 379.729 493.427 350.702Z" fill="#df550d" fill-rule="evenodd"/>
<path transform="matrix(1,0,0,-1,0,720)" d="M494.901 351.496 445.493 444.416 498.586 472.649 547.994 379.729 494.901 351.496Z" fill="#df570c" fill-rule="evenodd"/>
<path transform="matrix(1,0,0,-1,0,720)" d="M496.375 352.29 446.967 445.209 498.586 472.649 547.994 379.729 496.375 352.29Z" fill="#e0590c" fill-rule="evenodd"/>
<path transform="matrix(1,0,0,-1,0,720)" d="M497.849 353.055 448.441 445.975 498.586 472.649 547.994 379.729 497.849 353.055Z" fill="#e15b0c" fill-rule="evenodd"/>
<path transform="matrix(1,0,0,-1,0,720)" d="M499.323 353.849 449.915 446.769 498.586 472.649 547.994 379.729 499.323 353.849Z" fill="#e15d0b" fill-rule="evenodd"/>
<path transform="matrix(1,0,0,-1,0,720)" d="M500.797 354.643 451.389 447.562 498.586 472.649 547.994 379.729 500.797 354.643Z" fill="#e25f0b" fill-rule="evenodd"/>
<path transform="matrix(1,0,0,-1,0,720)" d="M502.271 355.408 452.863 448.328 498.586 472.649 547.994 379.729 502.271 355.408Z" fill="#e3610b" fill-rule="evenodd"/>
<path transform="matrix(1,0,0,-1,0,720)" d="M503.745 356.202 454.337 449.121 498.586 472.649 547.994 379.729 503.745 356.202Z" fill="#e3640a" fill-rule="evenodd"/>
<path transform="matrix(1,0,0,-1,0,720)" d="M505.219 356.995 455.811 449.915 498.586 472.649 547.994 379.729 505.219 356.995Z" fill="#e4660a" fill-rule="evenodd"/>
<path transform="matrix(1,0,0,-1,0,720)" d="M506.693 357.761 457.285 450.68 498.586 472.649 547.994 379.729 506.693 357.761Z" fill="#e5680a" fill-rule="evenodd"/>
<path transform="matrix(1,0,0,-1,0,720)" d="M508.167 358.554 458.759 451.474 498.586 472.649 547.994 379.729 508.167 358.554Z" fill="#e56a09" fill-rule="evenodd"/>
<path transform="matrix(1,0,0,-1,0,720)" d="M509.669 359.348 460.233 452.268 498.586 472.649 547.994 379.729 509.669 359.348Z" fill="#e66c09" fill-rule="evenodd"/>
<path transform="matrix(1,0,0,-1,0,720)" d="M511.143 360.113 461.707 453.033 498.586 472.649 547.994 379.729 511.143 360.113Z" fill="#e76e09" fill-rule="evenodd"/>
<path transform="matrix(1,0,0,-1,0,720)" d="M512.617 360.907 463.209 453.827 498.586 472.649 547.994 379.729 512.617 360.907Z" fill="#e77008" fill-rule="evenodd"/>
<path transform="matrix(1,0,0,-1,0,720)" d="M514.091 361.701 464.683 454.62 498.586 472.649 547.994 379.729 514.091 361.701Z" fill="#e87208" fill-rule="evenodd"/>
<path transform="matrix(1,0,0,-1,0,720)" d="M515.565 362.466 466.157 455.386 498.586 472.649 547.994 379.729 515.565 362.466Z" fill="#e87407" fill-rule="evenodd"/>
<path transform="matrix(1,0,0,-1,0,720)" d="M517.039 363.26 467.631 456.18 498.586 472.649 547.994 379.729 517.039 363.26Z" fill="#e97607" fill-rule="evenodd"/>
<path transform="matrix(1,0,0,-1,0,720)" d="M518.513 364.054 469.106 456.973 498.586 472.649 547.994 379.729 518.513 364.054Z" fill="#ea7807" fill-rule="evenodd"/>
<path transform="matrix(1,0,0,-1,0,720)" d="M519.987 364.819 470.58 457.739 498.586 472.649 547.994 379.729 519.987 364.819Z" fill="#ea7a06" fill-rule="evenodd"/>
<path transform="matrix(1,0,0,-1,0,720)" d="M521.461 365.613 472.054 458.532 498.586 472.649 547.994 379.729 521.461 365.613Z" fill="#eb7c06" fill-rule="evenodd"/>
<path transform="matrix(1,0,0,-1,0,720)" d="M522.935 366.406 473.528 459.326 498.586 472.649 547.994 379.729 522.935 366.406Z" fill="#ec7e06" fill-rule="evenodd"/>
<path transform="matrix(1,0,0,-1,0,720)" d="M524.409 367.172 475.002 460.091 498.586 472.649 547.994 379.729 524.409 367.172Z" fill="#ec8005" fill-rule="evenodd"/>
<path transform="matrix(1,0,0,-1,0,720)" d="M525.883 367.965 476.476 460.885 498.586 472.649 547.994 379.729 525.883 367.965Z" fill="#ed8205" fill-rule="evenodd"/>
<path transform="matrix(1,0,0,-1,0,720)" d="M527.357 368.759 477.95 461.679 498.586 472.649 547.994 379.729 527.357 368.759Z" fill="#ee8405" fill-rule="evenodd"/>
<path transform="matrix(1,0,0,-1,0,720)" d="M528.831 369.524 479.424 462.444 498.586 472.649 547.994 379.729 528.831 369.524Z" fill="#ee8604" fill-rule="evenodd"/>
<path transform="matrix(1,0,0,-1,0,720)" d="M530.306 370.318 480.898 463.238 498.586 472.649 547.994 379.729 530.306 370.318Z" fill="#ef8804" fill-rule="evenodd"/>
<path transform="matrix(1,0,0,-1,0,720)" d="M531.78 371.112 482.372 464.031 498.586 472.649 547.994 379.729 531.78 371.112Z" fill="#f08a04" fill-rule="evenodd"/>
<path transform="matrix(1,0,0,-1,0,720)" d="M533.254 371.877 483.846 464.797 498.586 472.649 547.994 379.729 533.254 371.877Z" fill="#f08c03" fill-rule="evenodd"/>
<path transform="matrix(1,0,0,-1,0,720)" d="M534.728 372.671 485.32 465.591 498.586 472.649 547.994 379.729 534.728 372.671Z" fill="#f18e03" fill-rule="evenodd"/>
<path transform="matrix(1,0,0,-1,0,720)" d="M536.202 373.465 486.794 466.384 498.586 472.649 547.994 379.729 536.202 373.465Z" fill="#f19002" fill-rule="evenodd"/>
<path transform="matrix(1,0,0,-1,0,720)" d="M537.676 374.23 488.268 467.15 498.586 472.649 547.994 379.729 537.676 374.23Z" fill="#f29202" fill-rule="evenodd"/>
<path transform="matrix(1,0,0,-1,0,720)" d="M539.15 375.024 489.742 467.943 498.586 472.649 547.994 379.729 539.15 375.024Z" fill="#f39402" fill-rule="evenodd"/>
<path transform="matrix(1,0,0,-1,0,720)" d="M540.624 375.817 491.216 468.737 498.586 472.649 547.994 379.729 540.624 375.817Z" fill="#f39601" fill-rule="evenodd"/>
<path transform="matrix(1,0,0,-1,0,720)" d="M542.098 376.583 492.69 469.502 498.586 472.649 547.994 379.729 542.098 376.583Z" fill="#f49801" fill-rule="evenodd"/>
<path transform="matrix(1,0,0,-1,0,720)" d="M543.572 377.376 494.164 470.296 498.586 472.649 547.994 379.729 543.572 377.376Z" fill="#f59a01" fill-rule="evenodd"/>
<path transform="matrix(1,0,0,-1,0,720)" d="M545.046 378.17 495.638 471.09 498.586 472.649 547.994 379.729 545.046 378.17Z" fill="#f59c00" fill-rule="evenodd"/>
<path transform="matrix(1,0,0,-1,0,720)" d="M546.52 378.935 497.112 471.855 498.586 472.649 547.994 379.729 546.52 378.935Z" fill="#f69e00" fill-rule="evenodd"/>
</g>
<g clip-path="url(#clip_2)">
<path transform="matrix(1,0,0,-1,0,720)" d="M451.814 423.638H504.454V368.957H451.814V423.638Z" fill="#d02715" fill-rule="evenodd"/>
<path transform="matrix(1,0,0,-1,0,720)" d="M466.838 346.337 428.712 409.748 490.507 446.882 528.605 383.471 466.838 346.337Z" fill="#d12915" fill-rule="evenodd"/>
<path transform="matrix(1,0,0,-1,0,720)" d="M467.887 346.961 429.761 410.4 490.507 446.882 528.605 383.471 467.887 346.961Z" fill="#d12b14" fill-rule="evenodd"/>
<path transform="matrix(1,0,0,-1,0,720)" d="M468.907 347.613 430.809 411.024 490.507 446.882 528.605 383.471 468.907 347.613Z" fill="#d22d14" fill-rule="evenodd"/>
<path transform="matrix(1,0,0,-1,0,720)" d="M469.956 348.236 431.858 411.647 490.507 446.882 528.605 383.471 469.956 348.236Z" fill="#d32f14" fill-rule="evenodd"/>
<path transform="matrix(1,0,0,-1,0,720)" d="M471.005 348.86 432.907 412.271 490.507 446.882 528.605 383.471 471.005 348.86Z" fill="#d33113" fill-rule="evenodd"/>
<path transform="matrix(1,0,0,-1,0,720)" d="M472.054 349.483 433.956 412.894 490.507 446.882 528.605 383.471 472.054 349.483Z" fill="#d43313" fill-rule="evenodd"/>
<path transform="matrix(1,0,0,-1,0,720)" d="M473.102 350.107 435.005 413.546 490.507 446.882 528.605 383.471 473.102 350.107Z" fill="#d53513" fill-rule="evenodd"/>
<path transform="matrix(1,0,0,-1,0,720)" d="M474.151 350.759 436.054 414.17 490.507 446.882 528.605 383.471 474.151 350.759Z" fill="#d53712" fill-rule="evenodd"/>
<path transform="matrix(1,0,0,-1,0,720)" d="M475.2 351.383 437.102 414.794 490.507 446.882 528.605 383.471 475.2 351.383Z" fill="#d63912" fill-rule="evenodd"/>
<path transform="matrix(1,0,0,-1,0,720)" d="M476.249 352.006 438.151 415.417 490.507 446.882 528.605 383.471 476.249 352.006Z" fill="#d63b11" fill-rule="evenodd"/>
<path transform="matrix(1,0,0,-1,0,720)" d="M477.298 352.63 439.2 416.041 490.507 446.882 528.605 383.471 477.298 352.63Z" fill="#d73d11" fill-rule="evenodd"/>
<path transform="matrix(1,0,0,-1,0,720)" d="M478.346 353.254 440.249 416.693 490.507 446.882 528.605 383.471 478.346 353.254Z" fill="#d83f11" fill-rule="evenodd"/>
<path transform="matrix(1,0,0,-1,0,720)" d="M479.395 353.906 441.298 417.317 490.507 446.882 528.605 383.471 479.395 353.906Z" fill="#d84110" fill-rule="evenodd"/>
<path transform="matrix(1,0,0,-1,0,720)" d="M480.444 354.529 442.346 417.94 490.507 446.882 528.605 383.471 480.444 354.529Z" fill="#d94310" fill-rule="evenodd"/>
<path transform="matrix(1,0,0,-1,0,720)" d="M481.493 355.153 443.367 418.564 490.507 446.882 528.605 383.471 481.493 355.153Z" fill="#da4510" fill-rule="evenodd"/>
<path transform="matrix(1,0,0,-1,0,720)" d="M482.542 355.776 444.416 419.187 490.507 446.882 528.605 383.471 482.542 355.776Z" fill="#da470f" fill-rule="evenodd"/>
<path transform="matrix(1,0,0,-1,0,720)" d="M483.591 356.4 445.465 419.839 490.507 446.882 528.605 383.471 483.591 356.4Z" fill="#db490f" fill-rule="evenodd"/>
<path transform="matrix(1,0,0,-1,0,720)" d="M484.639 357.052 446.513 420.463 490.507 446.882 528.605 383.471 484.639 357.052Z" fill="#dc4b0f" fill-rule="evenodd"/>
<path transform="matrix(1,0,0,-1,0,720)" d="M485.66 357.676 447.562 421.087 490.507 446.882 528.605 383.471 485.66 357.676Z" fill="#dc4d0e" fill-rule="evenodd"/>
<path transform="matrix(1,0,0,-1,0,720)" d="M486.709 358.299 448.611 421.71 490.507 446.882 528.605 383.471 486.709 358.299Z" fill="#dd4f0e" fill-rule="evenodd"/>
<path transform="matrix(1,0,0,-1,0,720)" d="M487.757 358.923 449.66 422.334 490.507 446.882 528.605 383.471 487.757 358.923Z" fill="#de510e" fill-rule="evenodd"/>
<path transform="matrix(1,0,0,-1,0,720)" d="M488.806 359.546 450.709 422.986 490.507 446.882 528.605 383.471 488.806 359.546Z" fill="#de530d" fill-rule="evenodd"/>
<path transform="matrix(1,0,0,-1,0,720)" d="M489.855 360.198 451.757 423.609 490.507 446.882 528.605 383.471 489.855 360.198Z" fill="#df550d" fill-rule="evenodd"/>
<path transform="matrix(1,0,0,-1,0,720)" d="M490.904 360.822 452.806 424.233 490.507 446.882 528.605 383.471 490.904 360.822Z" fill="#df570c" fill-rule="evenodd"/>
<path transform="matrix(1,0,0,-1,0,720)" d="M491.953 361.446 453.855 424.857 490.507 446.882 528.605 383.471 491.953 361.446Z" fill="#e0590c" fill-rule="evenodd"/>
<path transform="matrix(1,0,0,-1,0,720)" d="M493.002 362.069 454.904 425.48 490.507 446.882 528.605 383.471 493.002 362.069Z" fill="#e15b0c" fill-rule="evenodd"/>
<path transform="matrix(1,0,0,-1,0,720)" d="M494.05 362.693 455.953 426.132 490.507 446.882 528.605 383.471 494.05 362.693Z" fill="#e15d0b" fill-rule="evenodd"/>
<path transform="matrix(1,0,0,-1,0,720)" d="M495.099 363.317 457.002 426.756 490.507 446.882 528.605 383.471 495.099 363.317Z" fill="#e25f0b" fill-rule="evenodd"/>
<path transform="matrix(1,0,0,-1,0,720)" d="M496.148 363.969 458.05 427.38 490.507 446.882 528.605 383.471 496.148 363.969Z" fill="#e3610b" fill-rule="evenodd"/>
<path transform="matrix(1,0,0,-1,0,720)" d="M497.197 364.592 459.099 428.003 490.507 446.882 528.605 383.471 497.197 364.592Z" fill="#e3640a" fill-rule="evenodd"/>
<path transform="matrix(1,0,0,-1,0,720)" d="M498.246 365.216 460.12 428.627 490.507 446.882 528.605 383.471 498.246 365.216Z" fill="#e4660a" fill-rule="evenodd"/>
<path transform="matrix(1,0,0,-1,0,720)" d="M499.294 365.839 461.169 429.279 490.507 446.882 528.605 383.471 499.294 365.839Z" fill="#e5680a" fill-rule="evenodd"/>
<path transform="matrix(1,0,0,-1,0,720)" d="M500.343 366.463 462.217 429.902 490.507 446.882 528.605 383.471 500.343 366.463Z" fill="#e56a09" fill-rule="evenodd"/>
<path transform="matrix(1,0,0,-1,0,720)" d="M501.392 367.115 463.266 430.526 490.507 446.882 528.605 383.471 501.392 367.115Z" fill="#e66c09" fill-rule="evenodd"/>
<path transform="matrix(1,0,0,-1,0,720)" d="M502.413 367.739 464.315 431.15 490.507 446.882 528.605 383.471 502.413 367.739Z" fill="#e76e09" fill-rule="evenodd"/>
<path transform="matrix(1,0,0,-1,0,720)" d="M503.461 368.362 465.364 431.773 490.507 446.882 528.605 383.471 503.461 368.362Z" fill="#e77008" fill-rule="evenodd"/>
<path transform="matrix(1,0,0,-1,0,720)" d="M504.51 368.986 466.413 432.397 490.507 446.882 528.605 383.471 504.51 368.986Z" fill="#e87208" fill-rule="evenodd"/>
<path transform="matrix(1,0,0,-1,0,720)" d="M505.559 369.609 467.461 433.049 490.507 446.882 528.605 383.471 505.559 369.609Z" fill="#e87407" fill-rule="evenodd"/>
<path transform="matrix(1,0,0,-1,0,720)" d="M506.608 370.261 468.51 433.672 490.507 446.882 528.605 383.471 506.608 370.261Z" fill="#e97607" fill-rule="evenodd"/>
<path transform="matrix(1,0,0,-1,0,720)" d="M507.657 370.885 469.559 434.296 490.507 446.882 528.605 383.471 507.657 370.885Z" fill="#ea7807" fill-rule="evenodd"/>
<path transform="matrix(1,0,0,-1,0,720)" d="M508.706 371.509 470.608 434.92 490.507 446.882 528.605 383.471 508.706 371.509Z" fill="#ea7a06" fill-rule="evenodd"/>
<path transform="matrix(1,0,0,-1,0,720)" d="M509.754 372.132 471.657 435.543 490.507 446.882 528.605 383.471 509.754 372.132Z" fill="#eb7c06" fill-rule="evenodd"/>
<path transform="matrix(1,0,0,-1,0,720)" d="M510.803 372.756 472.706 436.195 490.507 446.882 528.605 383.471 510.803 372.756Z" fill="#ec7e06" fill-rule="evenodd"/>
<path transform="matrix(1,0,0,-1,0,720)" d="M511.852 373.408 473.754 436.819 490.507 446.882 528.605 383.471 511.852 373.408Z" fill="#ec8005" fill-rule="evenodd"/>
<path transform="matrix(1,0,0,-1,0,720)" d="M512.901 374.031 474.803 437.443 490.507 446.882 528.605 383.471 512.901 374.031Z" fill="#ed8205" fill-rule="evenodd"/>
<path transform="matrix(1,0,0,-1,0,720)" d="M513.95 374.655 475.852 438.066 490.507 446.882 528.605 383.471 513.95 374.655Z" fill="#ee8405" fill-rule="evenodd"/>
<path transform="matrix(1,0,0,-1,0,720)" d="M514.998 375.279 476.872 438.69 490.507 446.882 528.605 383.471 514.998 375.279Z" fill="#ee8604" fill-rule="evenodd"/>
<path transform="matrix(1,0,0,-1,0,720)" d="M516.047 375.902 477.921 439.342 490.507 446.882 528.605 383.471 516.047 375.902Z" fill="#ef8804" fill-rule="evenodd"/>
<path transform="matrix(1,0,0,-1,0,720)" d="M517.096 376.554 478.97 439.965 490.507 446.882 528.605 383.471 517.096 376.554Z" fill="#f08a04" fill-rule="evenodd"/>
<path transform="matrix(1,0,0,-1,0,720)" d="M518.145 377.178 480.019 440.589 490.507 446.882 528.605 383.471 518.145 377.178Z" fill="#f08c03" fill-rule="evenodd"/>
<path transform="matrix(1,0,0,-1,0,720)" d="M519.165 377.802 481.068 441.213 490.507 446.882 528.605 383.471 519.165 377.802Z" fill="#f18e03" fill-rule="evenodd"/>
<path transform="matrix(1,0,0,-1,0,720)" d="M520.214 378.425 482.117 441.836 490.507 446.882 528.605 383.471 520.214 378.425Z" fill="#f19002" fill-rule="evenodd"/>
<path transform="matrix(1,0,0,-1,0,720)" d="M521.263 379.049 483.165 442.488 490.507 446.882 528.605 383.471 521.263 379.049Z" fill="#f29202" fill-rule="evenodd"/>
<path transform="matrix(1,0,0,-1,0,720)" d="M522.312 379.701 484.214 443.112 490.507 446.882 528.605 383.471 522.312 379.701Z" fill="#f39402" fill-rule="evenodd"/>
<path transform="matrix(1,0,0,-1,0,720)" d="M523.361 380.324 485.263 443.735 490.507 446.882 528.605 383.471 523.361 380.324Z" fill="#f39601" fill-rule="evenodd"/>
<path transform="matrix(1,0,0,-1,0,720)" d="M524.409 380.948 486.312 444.359 490.507 446.882 528.605 383.471 524.409 380.948Z" fill="#f49801" fill-rule="evenodd"/>
<path transform="matrix(1,0,0,-1,0,720)" d="M525.458 381.572 487.361 444.983 490.507 446.882 528.605 383.471 525.458 381.572Z" fill="#f59a01" fill-rule="evenodd"/>
<path transform="matrix(1,0,0,-1,0,720)" d="M526.507 382.195 488.409 445.635 490.507 446.882 528.605 383.471 526.507 382.195Z" fill="#f59c00" fill-rule="evenodd"/>
<path transform="matrix(1,0,0,-1,0,720)" d="M527.556 382.847 489.458 446.258 490.507 446.882 528.605 383.471 527.556 382.847Z" fill="#f69e00" fill-rule="evenodd"/>
</g>
<g clip-path="url(#clip_3)">
<path transform="matrix(1,0,0,-1,0,720)" d="M454.28 404.702H496.828V361.644H454.28V404.702Z" fill="#d02715" fill-rule="evenodd"/>
<path transform="matrix(1,0,0,-1,0,720)" d="M466.413 343.361 436.11 393.789 485.546 423.496 515.849 373.068 466.413 343.361Z" fill="#d12915" fill-rule="evenodd"/>
<path transform="matrix(1,0,0,-1,0,720)" d="M467.235 343.871 436.961 394.299 485.546 423.496 515.849 373.068 467.235 343.871Z" fill="#d12b14" fill-rule="evenodd"/>
<path transform="matrix(1,0,0,-1,0,720)" d="M468.085 344.381 437.783 394.781 485.546 423.496 515.849 373.068 468.085 344.381Z" fill="#d22d14" fill-rule="evenodd"/>
<path transform="matrix(1,0,0,-1,0,720)" d="M468.907 344.863 438.633 395.291 485.546 423.496 515.849 373.068 468.907 344.863Z" fill="#d32f14" fill-rule="evenodd"/>
<path transform="matrix(1,0,0,-1,0,720)" d="M469.757 345.373 439.455 395.802 485.546 423.496 515.849 373.068 469.757 345.373Z" fill="#d33113" fill-rule="evenodd"/>
<path transform="matrix(1,0,0,-1,0,720)" d="M470.608 345.883 440.306 396.312 485.546 423.496 515.849 373.068 470.608 345.883Z" fill="#d43313" fill-rule="evenodd"/>
<path transform="matrix(1,0,0,-1,0,720)" d="M471.43 346.394 441.128 396.794 485.546 423.496 515.849 373.068 471.43 346.394Z" fill="#d53513" fill-rule="evenodd"/>
<path transform="matrix(1,0,0,-1,0,720)" d="M472.28 346.876 441.978 397.304 485.546 423.496 515.849 373.068 472.28 346.876Z" fill="#d53712" fill-rule="evenodd"/>
<path transform="matrix(1,0,0,-1,0,720)" d="M473.102 347.386 442.8 397.814 485.546 423.496 515.849 373.068 473.102 347.386Z" fill="#d63912" fill-rule="evenodd"/>
<path transform="matrix(1,0,0,-1,0,720)" d="M473.953 347.896 443.65 398.324 485.546 423.496 515.849 373.068 473.953 347.896Z" fill="#d63b11" fill-rule="evenodd"/>
<path transform="matrix(1,0,0,-1,0,720)" d="M474.775 348.406 444.501 398.806 485.546 423.496 515.849 373.068 474.775 348.406Z" fill="#d73d11" fill-rule="evenodd"/>
<path transform="matrix(1,0,0,-1,0,720)" d="M475.625 348.888 445.323 399.317 485.546 423.496 515.849 373.068 475.625 348.888Z" fill="#d83f11" fill-rule="evenodd"/>
<path transform="matrix(1,0,0,-1,0,720)" d="M476.447 349.398 446.173 399.827 485.546 423.496 515.849 373.068 476.447 349.398Z" fill="#d84110" fill-rule="evenodd"/>
<path transform="matrix(1,0,0,-1,0,720)" d="M477.298 349.909 446.995 400.337 485.546 423.496 515.849 373.068 477.298 349.909Z" fill="#d94310" fill-rule="evenodd"/>
<path transform="matrix(1,0,0,-1,0,720)" d="M478.148 350.419 447.846 400.819 485.546 423.496 515.849 373.068 478.148 350.419Z" fill="#da4510" fill-rule="evenodd"/>
<path transform="matrix(1,0,0,-1,0,720)" d="M478.97 350.901 448.668 401.329 485.546 423.496 515.849 373.068 478.97 350.901Z" fill="#da470f" fill-rule="evenodd"/>
<path transform="matrix(1,0,0,-1,0,720)" d="M479.82 351.411 449.518 401.839 485.546 423.496 515.849 373.068 479.82 351.411Z" fill="#db490f" fill-rule="evenodd"/>
<path transform="matrix(1,0,0,-1,0,720)" d="M480.643 351.921 450.34 402.35 485.546 423.496 515.849 373.068 480.643 351.921Z" fill="#dc4b0f" fill-rule="evenodd"/>
<path transform="matrix(1,0,0,-1,0,720)" d="M481.493 352.431 451.191 402.86 485.546 423.496 515.849 373.068 481.493 352.431Z" fill="#dc4d0e" fill-rule="evenodd"/>
<path transform="matrix(1,0,0,-1,0,720)" d="M482.315 352.942 452.041 403.342 485.546 423.496 515.849 373.068 482.315 352.942Z" fill="#dd4f0e" fill-rule="evenodd"/>
<path transform="matrix(1,0,0,-1,0,720)" d="M483.165 353.424 452.863 403.852 485.546 423.496 515.849 373.068 483.165 353.424Z" fill="#de510e" fill-rule="evenodd"/>
<path transform="matrix(1,0,0,-1,0,720)" d="M483.987 353.934 453.713 404.362 485.546 423.496 515.849 373.068 483.987 353.934Z" fill="#de530d" fill-rule="evenodd"/>
<path transform="matrix(1,0,0,-1,0,720)" d="M484.838 354.444 454.535 404.872 485.546 423.496 515.849 373.068 484.838 354.444Z" fill="#df550d" fill-rule="evenodd"/>
<path transform="matrix(1,0,0,-1,0,720)" d="M485.688 354.954 455.386 405.354 485.546 423.496 515.849 373.068 485.688 354.954Z" fill="#df570c" fill-rule="evenodd"/>
<path transform="matrix(1,0,0,-1,0,720)" d="M486.51 355.436 456.208 405.865 485.546 423.496 515.849 373.068 486.51 355.436Z" fill="#e0590c" fill-rule="evenodd"/>
<path transform="matrix(1,0,0,-1,0,720)" d="M487.361 355.946 457.058 406.375 485.546 423.496 515.849 373.068 487.361 355.946Z" fill="#e15b0c" fill-rule="evenodd"/>
<path transform="matrix(1,0,0,-1,0,720)" d="M488.183 356.457 457.88 406.885 485.546 423.496 515.849 373.068 488.183 356.457Z" fill="#e15d0b" fill-rule="evenodd"/>
<path transform="matrix(1,0,0,-1,0,720)" d="M489.033 356.967 458.731 407.367 485.546 423.496 515.849 373.068 489.033 356.967Z" fill="#e25f0b" fill-rule="evenodd"/>
<path transform="matrix(1,0,0,-1,0,720)" d="M489.855 357.449 459.581 407.877 485.546 423.496 515.849 373.068 489.855 357.449Z" fill="#e3610b" fill-rule="evenodd"/>
<path transform="matrix(1,0,0,-1,0,720)" d="M490.706 357.959 460.403 408.387 485.546 423.496 515.849 373.068 490.706 357.959Z" fill="#e3640a" fill-rule="evenodd"/>
<path transform="matrix(1,0,0,-1,0,720)" d="M491.528 358.469 461.254 408.898 485.546 423.496 515.849 373.068 491.528 358.469Z" fill="#e4660a" fill-rule="evenodd"/>
<path transform="matrix(1,0,0,-1,0,720)" d="M492.378 358.98 462.076 409.38 485.546 423.496 515.849 373.068 492.378 358.98Z" fill="#e5680a" fill-rule="evenodd"/>
<path transform="matrix(1,0,0,-1,0,720)" d="M493.228 359.461 462.926 409.89 485.546 423.496 515.849 373.068 493.228 359.461Z" fill="#e56a09" fill-rule="evenodd"/>
<path transform="matrix(1,0,0,-1,0,720)" d="M494.05 359.972 463.748 410.4 485.546 423.496 515.849 373.068 494.05 359.972Z" fill="#e66c09" fill-rule="evenodd"/>
<path transform="matrix(1,0,0,-1,0,720)" d="M494.901 360.482 464.598 410.91 485.546 423.496 515.849 373.068 494.901 360.482Z" fill="#e76e09" fill-rule="evenodd"/>
<path transform="matrix(1,0,0,-1,0,720)" d="M495.723 360.992 465.449 411.392 485.546 423.496 515.849 373.068 495.723 360.992Z" fill="#e77008" fill-rule="evenodd"/>
<path transform="matrix(1,0,0,-1,0,720)" d="M496.573 361.474 466.271 411.902 485.546 423.496 515.849 373.068 496.573 361.474Z" fill="#e87208" fill-rule="evenodd"/>
<path transform="matrix(1,0,0,-1,0,720)" d="M497.395 361.984 467.121 412.413 485.546 423.496 515.849 373.068 497.395 361.984Z" fill="#e87407" fill-rule="evenodd"/>
<path transform="matrix(1,0,0,-1,0,720)" d="M498.246 362.494 467.943 412.923 485.546 423.496 515.849 373.068 498.246 362.494Z" fill="#e97607" fill-rule="evenodd"/>
<path transform="matrix(1,0,0,-1,0,720)" d="M499.096 363.005 468.794 413.405 485.546 423.496 515.849 373.068 499.096 363.005Z" fill="#ea7807" fill-rule="evenodd"/>
<path transform="matrix(1,0,0,-1,0,720)" d="M499.918 363.487 469.616 413.915 485.546 423.496 515.849 373.068 499.918 363.487Z" fill="#ea7a06" fill-rule="evenodd"/>
<path transform="matrix(1,0,0,-1,0,720)" d="M500.769 363.997 470.466 414.425 485.546 423.496 515.849 373.068 500.769 363.997Z" fill="#eb7c06" fill-rule="evenodd"/>
<path transform="matrix(1,0,0,-1,0,720)" d="M501.591 364.507 471.288 414.935 485.546 423.496 515.849 373.068 501.591 364.507Z" fill="#ec7e06" fill-rule="evenodd"/>
<path transform="matrix(1,0,0,-1,0,720)" d="M502.441 365.017 472.139 415.446 485.546 423.496 515.849 373.068 502.441 365.017Z" fill="#ec8005" fill-rule="evenodd"/>
<path transform="matrix(1,0,0,-1,0,720)" d="M503.263 365.528 472.989 415.928 485.546 423.496 515.849 373.068 503.263 365.528Z" fill="#ed8205" fill-rule="evenodd"/>
<path transform="matrix(1,0,0,-1,0,720)" d="M504.113 366.009 473.811 416.438 485.546 423.496 515.849 373.068 504.113 366.009Z" fill="#ee8405" fill-rule="evenodd"/>
<path transform="matrix(1,0,0,-1,0,720)" d="M504.935 366.52 474.661 416.948 485.546 423.496 515.849 373.068 504.935 366.52Z" fill="#ee8604" fill-rule="evenodd"/>
<path transform="matrix(1,0,0,-1,0,720)" d="M505.786 367.03 475.483 417.458 485.546 423.496 515.849 373.068 505.786 367.03Z" fill="#ef8804" fill-rule="evenodd"/>
<path transform="matrix(1,0,0,-1,0,720)" d="M506.636 367.54 476.334 417.94 485.546 423.496 515.849 373.068 506.636 367.54Z" fill="#f08a04" fill-rule="evenodd"/>
<path transform="matrix(1,0,0,-1,0,720)" d="M507.458 368.022 477.156 418.45 485.546 423.496 515.849 373.068 507.458 368.022Z" fill="#f08c03" fill-rule="evenodd"/>
<path transform="matrix(1,0,0,-1,0,720)" d="M508.309 368.532 478.006 418.961 485.546 423.496 515.849 373.068 508.309 368.532Z" fill="#f18e03" fill-rule="evenodd"/>
<path transform="matrix(1,0,0,-1,0,720)" d="M509.131 369.043 478.828 419.471 485.546 423.496 515.849 373.068 509.131 369.043Z" fill="#f19002" fill-rule="evenodd"/>
<path transform="matrix(1,0,0,-1,0,720)" d="M509.981 369.553 479.679 419.953 485.546 423.496 515.849 373.068 509.981 369.553Z" fill="#f29202" fill-rule="evenodd"/>
<path transform="matrix(1,0,0,-1,0,720)" d="M510.803 370.035 480.529 420.463 485.546 423.496 515.849 373.068 510.803 370.035Z" fill="#f39402" fill-rule="evenodd"/>
<path transform="matrix(1,0,0,-1,0,720)" d="M511.654 370.545 481.351 420.973 485.546 423.496 515.849 373.068 511.654 370.545Z" fill="#f39601" fill-rule="evenodd"/>
<path transform="matrix(1,0,0,-1,0,720)" d="M512.476 371.055 482.202 421.483 485.546 423.496 515.849 373.068 512.476 371.055Z" fill="#f49801" fill-rule="evenodd"/>
<path transform="matrix(1,0,0,-1,0,720)" d="M513.326 371.565 483.024 421.965 485.546 423.496 515.849 373.068 513.326 371.565Z" fill="#f59a01" fill-rule="evenodd"/>
<path transform="matrix(1,0,0,-1,0,720)" d="M514.176 372.047 483.874 422.476 485.546 423.496 515.849 373.068 514.176 372.047Z" fill="#f59c00" fill-rule="evenodd"/>
<path transform="matrix(1,0,0,-1,0,720)" d="M514.998 372.557 484.696 422.986 485.546 423.496 515.849 373.068 514.998 372.557Z" fill="#f69e00" fill-rule="evenodd"/>
</g>
<g clip-path="url(#clip_4)">
<path transform="matrix(1,0,0,-1,0,720)" d="M371.622 443.679H441.524V361.644H371.622V443.679Z" fill="#d02715" fill-rule="evenodd"/>
<path transform="matrix(1,0,0,-1,0,720)" d="M388.517 333.439 339.08 426.387 426.104 472.649 475.54 379.729 388.517 333.439Z" fill="#d12915" fill-rule="evenodd"/>
<path transform="matrix(1,0,0,-1,0,720)" d="M389.991 334.233 340.554 427.153 426.104 472.649 475.54 379.729 389.991 334.233Z" fill="#d12b14" fill-rule="evenodd"/>
<path transform="matrix(1,0,0,-1,0,720)" d="M391.465 335.027 342.028 427.946 426.104 472.649 475.54 379.729 391.465 335.027Z" fill="#d22d14" fill-rule="evenodd"/>
<path transform="matrix(1,0,0,-1,0,720)" d="M392.939 335.792 343.531 428.74 426.104 472.649 475.54 379.729 392.939 335.792Z" fill="#d32f14" fill-rule="evenodd"/>
<path transform="matrix(1,0,0,-1,0,720)" d="M394.413 336.586 345.005 429.506 426.104 472.649 475.54 379.729 394.413 336.586Z" fill="#d33113" fill-rule="evenodd"/>
<path transform="matrix(1,0,0,-1,0,720)" d="M395.887 337.38 346.479 430.299 426.104 472.649 475.54 379.729 395.887 337.38Z" fill="#d43313" fill-rule="evenodd"/>
<path transform="matrix(1,0,0,-1,0,720)" d="M397.361 338.145 347.953 431.093 426.104 472.649 475.54 379.729 397.361 338.145Z" fill="#d53513" fill-rule="evenodd"/>
<path transform="matrix(1,0,0,-1,0,720)" d="M398.835 338.939 349.427 431.858 426.104 472.649 475.54 379.729 398.835 338.939Z" fill="#d53712" fill-rule="evenodd"/>
<path transform="matrix(1,0,0,-1,0,720)" d="M400.309 339.732 350.901 432.652 426.104 472.649 475.54 379.729 400.309 339.732Z" fill="#d63912" fill-rule="evenodd"/>
<path transform="matrix(1,0,0,-1,0,720)" d="M401.783 340.498 352.375 433.446 426.104 472.649 475.54 379.729 401.783 340.498Z" fill="#d63b11" fill-rule="evenodd"/>
<path transform="matrix(1,0,0,-1,0,720)" d="M403.257 341.291 353.849 434.211 426.104 472.649 475.54 379.729 403.257 341.291Z" fill="#d73d11" fill-rule="evenodd"/>
<path transform="matrix(1,0,0,-1,0,720)" d="M404.731 342.085 355.323 435.005 426.104 472.649 475.54 379.729 404.731 342.085Z" fill="#d83f11" fill-rule="evenodd"/>
<path transform="matrix(1,0,0,-1,0,720)" d="M406.205 342.85 356.797 435.798 426.104 472.649 475.54 379.729 406.205 342.85Z" fill="#d84110" fill-rule="evenodd"/>
<path transform="matrix(1,0,0,-1,0,720)" d="M407.679 343.644 358.271 436.564 426.104 472.649 475.54 379.729 407.679 343.644Z" fill="#d94310" fill-rule="evenodd"/>
<path transform="matrix(1,0,0,-1,0,720)" d="M409.153 344.438 359.745 437.357 426.104 472.649 475.54 379.729 409.153 344.438Z" fill="#da4510" fill-rule="evenodd"/>
<path transform="matrix(1,0,0,-1,0,720)" d="M410.627 345.203 361.219 438.151 426.104 472.649 475.54 379.729 410.627 345.203Z" fill="#da470f" fill-rule="evenodd"/>
<path transform="matrix(1,0,0,-1,0,720)" d="M412.101 345.997 362.693 438.917 426.104 472.649 475.54 379.729 412.101 345.997Z" fill="#db490f" fill-rule="evenodd"/>
<path transform="matrix(1,0,0,-1,0,720)" d="M413.575 346.791 364.167 439.71 426.104 472.649 475.54 379.729 413.575 346.791Z" fill="#dc4b0f" fill-rule="evenodd"/>
<path transform="matrix(1,0,0,-1,0,720)" d="M415.049 347.556 365.641 440.504 426.104 472.649 475.54 379.729 415.049 347.556Z" fill="#dc4d0e" fill-rule="evenodd"/>
<path transform="matrix(1,0,0,-1,0,720)" d="M416.523 348.35 367.115 441.269 426.104 472.649 475.54 379.729 416.523 348.35Z" fill="#dd4f0e" fill-rule="evenodd"/>
<path transform="matrix(1,0,0,-1,0,720)" d="M417.997 349.143 368.589 442.063 426.104 472.649 475.54 379.729 417.997 349.143Z" fill="#de510e" fill-rule="evenodd"/>
<path transform="matrix(1,0,0,-1,0,720)" d="M419.471 349.909 370.063 442.857 426.104 472.649 475.54 379.729 419.471 349.909Z" fill="#de530d" fill-rule="evenodd"/>
<path transform="matrix(1,0,0,-1,0,720)" d="M420.945 350.702 371.537 443.622 426.104 472.649 475.54 379.729 420.945 350.702Z" fill="#df550d" fill-rule="evenodd"/>
<path transform="matrix(1,0,0,-1,0,720)" d="M422.419 351.496 373.011 444.416 426.104 472.649 475.54 379.729 422.419 351.496Z" fill="#df570c" fill-rule="evenodd"/>
<path transform="matrix(1,0,0,-1,0,720)" d="M423.893 352.261 374.485 445.209 426.104 472.649 475.54 379.729 423.893 352.261Z" fill="#e0590c" fill-rule="evenodd"/>
<path transform="matrix(1,0,0,-1,0,720)" d="M425.367 353.055 375.959 446.003 426.104 472.649 475.54 379.729 425.367 353.055Z" fill="#e15b0c" fill-rule="evenodd"/>
<path transform="matrix(1,0,0,-1,0,720)" d="M426.841 353.849 377.433 446.769 426.104 472.649 475.54 379.729 426.841 353.849Z" fill="#e15d0b" fill-rule="evenodd"/>
<path transform="matrix(1,0,0,-1,0,720)" d="M428.315 354.614 378.907 447.562 426.104 472.649 475.54 379.729 428.315 354.614Z" fill="#e25f0b" fill-rule="evenodd"/>
<path transform="matrix(1,0,0,-1,0,720)" d="M429.817 355.408 380.381 448.356 426.104 472.649 475.54 379.729 429.817 355.408Z" fill="#e3610b" fill-rule="evenodd"/>
<path transform="matrix(1,0,0,-1,0,720)" d="M431.291 356.202 381.855 449.121 426.104 472.649 475.54 379.729 431.291 356.202Z" fill="#e3640a" fill-rule="evenodd"/>
<path transform="matrix(1,0,0,-1,0,720)" d="M432.765 356.967 383.329 449.915 426.104 472.649 475.54 379.729 432.765 356.967Z" fill="#e4660a" fill-rule="evenodd"/>
<path transform="matrix(1,0,0,-1,0,720)" d="M434.239 357.761 384.803 450.709 426.104 472.649 475.54 379.729 434.239 357.761Z" fill="#e5680a" fill-rule="evenodd"/>
<path transform="matrix(1,0,0,-1,0,720)" d="M435.713 358.554 386.306 451.474 426.104 472.649 475.54 379.729 435.713 358.554Z" fill="#e56a09" fill-rule="evenodd"/>
<path transform="matrix(1,0,0,-1,0,720)" d="M437.187 359.32 387.78 452.268 426.104 472.649 475.54 379.729 437.187 359.32Z" fill="#e66c09" fill-rule="evenodd"/>
<path transform="matrix(1,0,0,-1,0,720)" d="M438.661 360.113 389.254 453.061 426.104 472.649 475.54 379.729 438.661 360.113Z" fill="#e76e09" fill-rule="evenodd"/>
<path transform="matrix(1,0,0,-1,0,720)" d="M440.135 360.907 390.728 453.827 426.104 472.649 475.54 379.729 440.135 360.907Z" fill="#e77008" fill-rule="evenodd"/>
<path transform="matrix(1,0,0,-1,0,720)" d="M441.609 361.701 392.202 454.62 426.104 472.649 475.54 379.729 441.609 361.701Z" fill="#e87208" fill-rule="evenodd"/>
<path transform="matrix(1,0,0,-1,0,720)" d="M443.083 362.466 393.676 455.414 426.104 472.649 475.54 379.729 443.083 362.466Z" fill="#e87407" fill-rule="evenodd"/>
<path transform="matrix(1,0,0,-1,0,720)" d="M444.557 363.26 395.15 456.18 426.104 472.649 475.54 379.729 444.557 363.26Z" fill="#e97607" fill-rule="evenodd"/>
<path transform="matrix(1,0,0,-1,0,720)" d="M446.031 364.054 396.624 456.973 426.104 472.649 475.54 379.729 446.031 364.054Z" fill="#ea7807" fill-rule="evenodd"/>
<path transform="matrix(1,0,0,-1,0,720)" d="M447.506 364.819 398.098 457.767 426.104 472.649 475.54 379.729 447.506 364.819Z" fill="#ea7a06" fill-rule="evenodd"/>
<path transform="matrix(1,0,0,-1,0,720)" d="M448.98 365.613 399.572 458.532 426.104 472.649 475.54 379.729 448.98 365.613Z" fill="#eb7c06" fill-rule="evenodd"/>
<path transform="matrix(1,0,0,-1,0,720)" d="M450.454 366.406 401.046 459.326 426.104 472.649 475.54 379.729 450.454 366.406Z" fill="#ec7e06" fill-rule="evenodd"/>
<path transform="matrix(1,0,0,-1,0,720)" d="M451.928 367.172 402.52 460.12 426.104 472.649 475.54 379.729 451.928 367.172Z" fill="#ec8005" fill-rule="evenodd"/>
<path transform="matrix(1,0,0,-1,0,720)" d="M453.402 367.965 403.994 460.885 426.104 472.649 475.54 379.729 453.402 367.965Z" fill="#ed8205" fill-rule="evenodd"/>
<path transform="matrix(1,0,0,-1,0,720)" d="M454.876 368.759 405.468 461.679 426.104 472.649 475.54 379.729 454.876 368.759Z" fill="#ee8405" fill-rule="evenodd"/>
<path transform="matrix(1,0,0,-1,0,720)" d="M456.35 369.524 406.942 462.472 426.104 472.649 475.54 379.729 456.35 369.524Z" fill="#ee8604" fill-rule="evenodd"/>
<path transform="matrix(1,0,0,-1,0,720)" d="M457.824 370.318 408.416 463.238 426.104 472.649 475.54 379.729 457.824 370.318Z" fill="#ef8804" fill-rule="evenodd"/>
<path transform="matrix(1,0,0,-1,0,720)" d="M459.298 371.112 409.89 464.031 426.104 472.649 475.54 379.729 459.298 371.112Z" fill="#f08a04" fill-rule="evenodd"/>
<path transform="matrix(1,0,0,-1,0,720)" d="M460.772 371.877 411.364 464.825 426.104 472.649 475.54 379.729 460.772 371.877Z" fill="#f08c03" fill-rule="evenodd"/>
<path transform="matrix(1,0,0,-1,0,720)" d="M462.246 372.671 412.838 465.591 426.104 472.649 475.54 379.729 462.246 372.671Z" fill="#f18e03" fill-rule="evenodd"/>
<path transform="matrix(1,0,0,-1,0,720)" d="M463.72 373.465 414.312 466.384 426.104 472.649 475.54 379.729 463.72 373.465Z" fill="#f19002" fill-rule="evenodd"/>
<path transform="matrix(1,0,0,-1,0,720)" d="M465.194 374.23 415.786 467.178 426.104 472.649 475.54 379.729 465.194 374.23Z" fill="#f29202" fill-rule="evenodd"/>
<path transform="matrix(1,0,0,-1,0,720)" d="M466.668 375.024 417.26 467.943 426.104 472.649 475.54 379.729 466.668 375.024Z" fill="#f39402" fill-rule="evenodd"/>
<path transform="matrix(1,0,0,-1,0,720)" d="M468.142 375.817 418.734 468.737 426.104 472.649 475.54 379.729 468.142 375.817Z" fill="#f39601" fill-rule="evenodd"/>
<path transform="matrix(1,0,0,-1,0,720)" d="M469.616 376.583 420.208 469.531 426.104 472.649 475.54 379.729 469.616 376.583Z" fill="#f49801" fill-rule="evenodd"/>
<path transform="matrix(1,0,0,-1,0,720)" d="M471.09 377.376 421.682 470.296 426.104 472.649 475.54 379.729 471.09 377.376Z" fill="#f59a01" fill-rule="evenodd"/>
<path transform="matrix(1,0,0,-1,0,720)" d="M472.592 378.17 423.156 471.09 426.104 472.649 475.54 379.729 472.592 378.17Z" fill="#f59c00" fill-rule="evenodd"/>
<path transform="matrix(1,0,0,-1,0,720)" d="M474.066 378.935 424.63 471.883 426.104 472.649 475.54 379.729 474.066 378.935Z" fill="#f69e00" fill-rule="evenodd"/>
</g>
<g clip-path="url(#clip_5)">
<path transform="matrix(1,0,0,-1,0,720)" d="M381.175 423.638H433.814V368.957H381.175V423.638Z" fill="#d02715" fill-rule="evenodd"/>
<path transform="matrix(1,0,0,-1,0,720)" d="M396.198 346.337 358.072 409.748 419.868 446.882 457.965 383.471 396.198 346.337Z" fill="#d12915" fill-rule="evenodd"/>
<path transform="matrix(1,0,0,-1,0,720)" d="M397.247 346.961 359.121 410.4 419.868 446.882 457.965 383.471 397.247 346.961Z" fill="#d12b14" fill-rule="evenodd"/>
<path transform="matrix(1,0,0,-1,0,720)" d="M398.268 347.613 360.17 411.024 419.868 446.882 457.965 383.471 398.268 347.613Z" fill="#d22d14" fill-rule="evenodd"/>
<path transform="matrix(1,0,0,-1,0,720)" d="M399.317 348.236 361.219 411.647 419.868 446.882 457.965 383.471 399.317 348.236Z" fill="#d32f14" fill-rule="evenodd"/>
<path transform="matrix(1,0,0,-1,0,720)" d="M400.365 348.86 362.268 412.271 419.868 446.882 457.965 383.471 400.365 348.86Z" fill="#d33113" fill-rule="evenodd"/>
<path transform="matrix(1,0,0,-1,0,720)" d="M401.414 349.483 363.317 412.894 419.868 446.882 457.965 383.471 401.414 349.483Z" fill="#d43313" fill-rule="evenodd"/>
<path transform="matrix(1,0,0,-1,0,720)" d="M402.463 350.107 364.365 413.546 419.868 446.882 457.965 383.471 402.463 350.107Z" fill="#d53513" fill-rule="evenodd"/>
<path transform="matrix(1,0,0,-1,0,720)" d="M403.512 350.759 365.414 414.17 419.868 446.882 457.965 383.471 403.512 350.759Z" fill="#d53712" fill-rule="evenodd"/>
<path transform="matrix(1,0,0,-1,0,720)" d="M404.561 351.383 366.463 414.794 419.868 446.882 457.965 383.471 404.561 351.383Z" fill="#d63912" fill-rule="evenodd"/>
<path transform="matrix(1,0,0,-1,0,720)" d="M405.609 352.006 367.512 415.417 419.868 446.882 457.965 383.471 405.609 352.006Z" fill="#d63b11" fill-rule="evenodd"/>
<path transform="matrix(1,0,0,-1,0,720)" d="M406.658 352.63 368.561 416.041 419.868 446.882 457.965 383.471 406.658 352.63Z" fill="#d73d11" fill-rule="evenodd"/>
<path transform="matrix(1,0,0,-1,0,720)" d="M407.707 353.254 369.609 416.693 419.868 446.882 457.965 383.471 407.707 353.254Z" fill="#d83f11" fill-rule="evenodd"/>
<path transform="matrix(1,0,0,-1,0,720)" d="M408.756 353.906 370.658 417.317 419.868 446.882 457.965 383.471 408.756 353.906Z" fill="#d84110" fill-rule="evenodd"/>
<path transform="matrix(1,0,0,-1,0,720)" d="M409.805 354.529 371.707 417.94 419.868 446.882 457.965 383.471 409.805 354.529Z" fill="#d94310" fill-rule="evenodd"/>
<path transform="matrix(1,0,0,-1,0,720)" d="M410.854 355.153 372.728 418.564 419.868 446.882 457.965 383.471 410.854 355.153Z" fill="#da4510" fill-rule="evenodd"/>
<path transform="matrix(1,0,0,-1,0,720)" d="M411.902 355.776 373.776 419.187 419.868 446.882 457.965 383.471 411.902 355.776Z" fill="#da470f" fill-rule="evenodd"/>
<path transform="matrix(1,0,0,-1,0,720)" d="M412.951 356.4 374.825 419.839 419.868 446.882 457.965 383.471 412.951 356.4Z" fill="#db490f" fill-rule="evenodd"/>
<path transform="matrix(1,0,0,-1,0,720)" d="M414 357.052 375.874 420.463 419.868 446.882 457.965 383.471 414 357.052Z" fill="#dc4b0f" fill-rule="evenodd"/>
<path transform="matrix(1,0,0,-1,0,720)" d="M415.02 357.676 376.923 421.087 419.868 446.882 457.965 383.471 415.02 357.676Z" fill="#dc4d0e" fill-rule="evenodd"/>
<path transform="matrix(1,0,0,-1,0,720)" d="M416.069 358.299 377.972 421.71 419.868 446.882 457.965 383.471 416.069 358.299Z" fill="#dd4f0e" fill-rule="evenodd"/>
<path transform="matrix(1,0,0,-1,0,720)" d="M417.118 358.923 379.02 422.334 419.868 446.882 457.965 383.471 417.118 358.923Z" fill="#de510e" fill-rule="evenodd"/>
<path transform="matrix(1,0,0,-1,0,720)" d="M418.167 359.546 380.069 422.986 419.868 446.882 457.965 383.471 418.167 359.546Z" fill="#de530d" fill-rule="evenodd"/>
<path transform="matrix(1,0,0,-1,0,720)" d="M419.216 360.198 381.118 423.609 419.868 446.882 457.965 383.471 419.216 360.198Z" fill="#df550d" fill-rule="evenodd"/>
<path transform="matrix(1,0,0,-1,0,720)" d="M420.265 360.822 382.167 424.233 419.868 446.882 457.965 383.471 420.265 360.822Z" fill="#df570c" fill-rule="evenodd"/>
<path transform="matrix(1,0,0,-1,0,720)" d="M421.313 361.446 383.216 424.857 419.868 446.882 457.965 383.471 421.313 361.446Z" fill="#e0590c" fill-rule="evenodd"/>
<path transform="matrix(1,0,0,-1,0,720)" d="M422.362 362.069 384.265 425.48 419.868 446.882 457.965 383.471 422.362 362.069Z" fill="#e15b0c" fill-rule="evenodd"/>
<path transform="matrix(1,0,0,-1,0,720)" d="M423.411 362.693 385.313 426.132 419.868 446.882 457.965 383.471 423.411 362.693Z" fill="#e15d0b" fill-rule="evenodd"/>
<path transform="matrix(1,0,0,-1,0,720)" d="M424.46 363.317 386.362 426.756 419.868 446.882 457.965 383.471 424.46 363.317Z" fill="#e25f0b" fill-rule="evenodd"/>
<path transform="matrix(1,0,0,-1,0,720)" d="M425.509 363.969 387.411 427.38 419.868 446.882 457.965 383.471 425.509 363.969Z" fill="#e3610b" fill-rule="evenodd"/>
<path transform="matrix(1,0,0,-1,0,720)" d="M426.557 364.592 388.46 428.003 419.868 446.882 457.965 383.471 426.557 364.592Z" fill="#e3640a" fill-rule="evenodd"/>
<path transform="matrix(1,0,0,-1,0,720)" d="M427.606 365.216 389.48 428.627 419.868 446.882 457.965 383.471 427.606 365.216Z" fill="#e4660a" fill-rule="evenodd"/>
<path transform="matrix(1,0,0,-1,0,720)" d="M428.655 365.839 390.529 429.279 419.868 446.882 457.965 383.471 428.655 365.839Z" fill="#e5680a" fill-rule="evenodd"/>
<path transform="matrix(1,0,0,-1,0,720)" d="M429.704 366.463 391.578 429.902 419.868 446.882 457.965 383.471 429.704 366.463Z" fill="#e56a09" fill-rule="evenodd"/>
<path transform="matrix(1,0,0,-1,0,720)" d="M430.753 367.115 392.627 430.526 419.868 446.882 457.965 383.471 430.753 367.115Z" fill="#e66c09" fill-rule="evenodd"/>
<path transform="matrix(1,0,0,-1,0,720)" d="M431.802 367.739 393.676 431.15 419.868 446.882 457.965 383.471 431.802 367.739Z" fill="#e76e09" fill-rule="evenodd"/>
<path transform="matrix(1,0,0,-1,0,720)" d="M432.822 368.362 394.724 431.773 419.868 446.882 457.965 383.471 432.822 368.362Z" fill="#e77008" fill-rule="evenodd"/>
<path transform="matrix(1,0,0,-1,0,720)" d="M433.871 368.986 395.773 432.397 419.868 446.882 457.965 383.471 433.871 368.986Z" fill="#e87208" fill-rule="evenodd"/>
<path transform="matrix(1,0,0,-1,0,720)" d="M434.92 369.609 396.822 433.049 419.868 446.882 457.965 383.471 434.92 369.609Z" fill="#e87407" fill-rule="evenodd"/>
<path transform="matrix(1,0,0,-1,0,720)" d="M435.969 370.261 397.871 433.672 419.868 446.882 457.965 383.471 435.969 370.261Z" fill="#e97607" fill-rule="evenodd"/>
<path transform="matrix(1,0,0,-1,0,720)" d="M437.017 370.885 398.92 434.296 419.868 446.882 457.965 383.471 437.017 370.885Z" fill="#ea7807" fill-rule="evenodd"/>
<path transform="matrix(1,0,0,-1,0,720)" d="M438.066 371.509 399.969 434.92 419.868 446.882 457.965 383.471 438.066 371.509Z" fill="#ea7a06" fill-rule="evenodd"/>
<path transform="matrix(1,0,0,-1,0,720)" d="M439.115 372.132 401.017 435.543 419.868 446.882 457.965 383.471 439.115 372.132Z" fill="#eb7c06" fill-rule="evenodd"/>
<path transform="matrix(1,0,0,-1,0,720)" d="M440.164 372.756 402.066 436.195 419.868 446.882 457.965 383.471 440.164 372.756Z" fill="#ec7e06" fill-rule="evenodd"/>
<path transform="matrix(1,0,0,-1,0,720)" d="M441.213 373.408 403.115 436.819 419.868 446.882 457.965 383.471 441.213 373.408Z" fill="#ec8005" fill-rule="evenodd"/>
<path transform="matrix(1,0,0,-1,0,720)" d="M442.261 374.031 404.164 437.443 419.868 446.882 457.965 383.471 442.261 374.031Z" fill="#ed8205" fill-rule="evenodd"/>
<path transform="matrix(1,0,0,-1,0,720)" d="M443.31 374.655 405.213 438.066 419.868 446.882 457.965 383.471 443.31 374.655Z" fill="#ee8405" fill-rule="evenodd"/>
<path transform="matrix(1,0,0,-1,0,720)" d="M444.359 375.279 406.233 438.69 419.868 446.882 457.965 383.471 444.359 375.279Z" fill="#ee8604" fill-rule="evenodd"/>
<path transform="matrix(1,0,0,-1,0,720)" d="M445.408 375.902 407.282 439.342 419.868 446.882 457.965 383.471 445.408 375.902Z" fill="#ef8804" fill-rule="evenodd"/>
<path transform="matrix(1,0,0,-1,0,720)" d="M446.457 376.554 408.331 439.965 419.868 446.882 457.965 383.471 446.457 376.554Z" fill="#f08a04" fill-rule="evenodd"/>
<path transform="matrix(1,0,0,-1,0,720)" d="M447.506 377.178 409.38 440.589 419.868 446.882 457.965 383.471 447.506 377.178Z" fill="#f08c03" fill-rule="evenodd"/>
<path transform="matrix(1,0,0,-1,0,720)" d="M448.554 377.802 410.428 441.213 419.868 446.882 457.965 383.471 448.554 377.802Z" fill="#f18e03" fill-rule="evenodd"/>
<path transform="matrix(1,0,0,-1,0,720)" d="M449.575 378.425 411.477 441.836 419.868 446.882 457.965 383.471 449.575 378.425Z" fill="#f19002" fill-rule="evenodd"/>
<path transform="matrix(1,0,0,-1,0,720)" d="M450.624 379.049 412.526 442.488 419.868 446.882 457.965 383.471 450.624 379.049Z" fill="#f29202" fill-rule="evenodd"/>
<path transform="matrix(1,0,0,-1,0,720)" d="M451.672 379.701 413.575 443.112 419.868 446.882 457.965 383.471 451.672 379.701Z" fill="#f39402" fill-rule="evenodd"/>
<path transform="matrix(1,0,0,-1,0,720)" d="M452.721 380.324 414.624 443.735 419.868 446.882 457.965 383.471 452.721 380.324Z" fill="#f39601" fill-rule="evenodd"/>
<path transform="matrix(1,0,0,-1,0,720)" d="M453.77 380.948 415.672 444.359 419.868 446.882 457.965 383.471 453.77 380.948Z" fill="#f49801" fill-rule="evenodd"/>
<path transform="matrix(1,0,0,-1,0,720)" d="M454.819 381.572 416.721 444.983 419.868 446.882 457.965 383.471 454.819 381.572Z" fill="#f59a01" fill-rule="evenodd"/>
<path transform="matrix(1,0,0,-1,0,720)" d="M455.868 382.195 417.77 445.635 419.868 446.882 457.965 383.471 455.868 382.195Z" fill="#f59c00" fill-rule="evenodd"/>
<path transform="matrix(1,0,0,-1,0,720)" d="M456.917 382.847 418.819 446.258 419.868 446.882 457.965 383.471 456.917 382.847Z" fill="#f69e00" fill-rule="evenodd"/>
</g>
<g clip-path="url(#clip_6)">
<path transform="matrix(1,0,0,-1,0,720)" d="M388.8 404.702H431.376V361.644H388.8V404.702Z" fill="#d02715" fill-rule="evenodd"/>
<path transform="matrix(1,0,0,-1,0,720)" d="M400.932 343.361 370.63 393.789 420.094 423.496 450.397 373.068 400.932 343.361Z" fill="#d12915" fill-rule="evenodd"/>
<path transform="matrix(1,0,0,-1,0,720)" d="M401.783 343.843 371.48 394.299 420.094 423.496 450.397 373.068 401.783 343.843Z" fill="#d12b14" fill-rule="evenodd"/>
<path transform="matrix(1,0,0,-1,0,720)" d="M402.605 344.353 372.302 394.781 420.094 423.496 450.397 373.068 402.605 344.353Z" fill="#d22d14" fill-rule="evenodd"/>
<path transform="matrix(1,0,0,-1,0,720)" d="M403.455 344.863 373.153 395.291 420.094 423.496 450.397 373.068 403.455 344.863Z" fill="#d32f14" fill-rule="evenodd"/>
<path transform="matrix(1,0,0,-1,0,720)" d="M404.277 345.373 373.975 395.802 420.094 423.496 450.397 373.068 404.277 345.373Z" fill="#d33113" fill-rule="evenodd"/>
<path transform="matrix(1,0,0,-1,0,720)" d="M405.128 345.883 374.825 396.312 420.094 423.496 450.397 373.068 405.128 345.883Z" fill="#d43313" fill-rule="evenodd"/>
<path transform="matrix(1,0,0,-1,0,720)" d="M405.95 346.365 375.647 396.794 420.094 423.496 450.397 373.068 405.95 346.365Z" fill="#d53513" fill-rule="evenodd"/>
<path transform="matrix(1,0,0,-1,0,720)" d="M406.8 346.876 376.498 397.304 420.094 423.496 450.397 373.068 406.8 346.876Z" fill="#d53712" fill-rule="evenodd"/>
<path transform="matrix(1,0,0,-1,0,720)" d="M407.65 347.386 377.348 397.814 420.094 423.496 450.397 373.068 407.65 347.386Z" fill="#d63912" fill-rule="evenodd"/>
<path transform="matrix(1,0,0,-1,0,720)" d="M408.472 347.896 378.17 398.324 420.094 423.496 450.397 373.068 408.472 347.896Z" fill="#d63b11" fill-rule="evenodd"/>
<path transform="matrix(1,0,0,-1,0,720)" d="M409.323 348.378 379.02 398.835 420.094 423.496 450.397 373.068 409.323 348.378Z" fill="#d73d11" fill-rule="evenodd"/>
<path transform="matrix(1,0,0,-1,0,720)" d="M410.145 348.888 379.843 399.317 420.094 423.496 450.397 373.068 410.145 348.888Z" fill="#d83f11" fill-rule="evenodd"/>
<path transform="matrix(1,0,0,-1,0,720)" d="M410.995 349.398 380.693 399.827 420.094 423.496 450.397 373.068 410.995 349.398Z" fill="#d84110" fill-rule="evenodd"/>
<path transform="matrix(1,0,0,-1,0,720)" d="M411.817 349.909 381.515 400.337 420.094 423.496 450.397 373.068 411.817 349.909Z" fill="#d94310" fill-rule="evenodd"/>
<path transform="matrix(1,0,0,-1,0,720)" d="M412.668 350.391 382.365 400.847 420.094 423.496 450.397 373.068 412.668 350.391Z" fill="#da4510" fill-rule="evenodd"/>
<path transform="matrix(1,0,0,-1,0,720)" d="M413.518 350.901 383.216 401.329 420.094 423.496 450.397 373.068 413.518 350.901Z" fill="#da470f" fill-rule="evenodd"/>
<path transform="matrix(1,0,0,-1,0,720)" d="M414.34 351.411 384.038 401.839 420.094 423.496 450.397 373.068 414.34 351.411Z" fill="#db490f" fill-rule="evenodd"/>
<path transform="matrix(1,0,0,-1,0,720)" d="M415.191 351.921 384.888 402.35 420.094 423.496 450.397 373.068 415.191 351.921Z" fill="#dc4b0f" fill-rule="evenodd"/>
<path transform="matrix(1,0,0,-1,0,720)" d="M416.013 352.403 385.71 402.86 420.094 423.496 450.397 373.068 416.013 352.403Z" fill="#dc4d0e" fill-rule="evenodd"/>
<path transform="matrix(1,0,0,-1,0,720)" d="M416.863 352.913 386.561 403.342 420.094 423.496 450.397 373.068 416.863 352.913Z" fill="#dd4f0e" fill-rule="evenodd"/>
<path transform="matrix(1,0,0,-1,0,720)" d="M417.685 353.424 387.383 403.852 420.094 423.496 450.397 373.068 417.685 353.424Z" fill="#de510e" fill-rule="evenodd"/>
<path transform="matrix(1,0,0,-1,0,720)" d="M418.535 353.934 388.233 404.362 420.094 423.496 450.397 373.068 418.535 353.934Z" fill="#de530d" fill-rule="evenodd"/>
<path transform="matrix(1,0,0,-1,0,720)" d="M419.386 354.444 389.083 404.872 420.094 423.496 450.397 373.068 419.386 354.444Z" fill="#df550d" fill-rule="evenodd"/>
<path transform="matrix(1,0,0,-1,0,720)" d="M420.208 354.926 389.906 405.354 420.094 423.496 450.397 373.068 420.208 354.926Z" fill="#df570c" fill-rule="evenodd"/>
<path transform="matrix(1,0,0,-1,0,720)" d="M421.058 355.436 390.756 405.865 420.094 423.496 450.397 373.068 421.058 355.436Z" fill="#e0590c" fill-rule="evenodd"/>
<path transform="matrix(1,0,0,-1,0,720)" d="M421.88 355.946 391.578 406.375 420.094 423.496 450.397 373.068 421.88 355.946Z" fill="#e15b0c" fill-rule="evenodd"/>
<path transform="matrix(1,0,0,-1,0,720)" d="M422.731 356.457 392.428 406.885 420.094 423.496 450.397 373.068 422.731 356.457Z" fill="#e15d0b" fill-rule="evenodd"/>
<path transform="matrix(1,0,0,-1,0,720)" d="M423.553 356.939 393.25 407.395 420.094 423.496 450.397 373.068 423.553 356.939Z" fill="#e25f0b" fill-rule="evenodd"/>
<path transform="matrix(1,0,0,-1,0,720)" d="M424.403 357.449 394.101 407.877 420.094 423.496 450.397 373.068 424.403 357.449Z" fill="#e3610b" fill-rule="evenodd"/>
<path transform="matrix(1,0,0,-1,0,720)" d="M425.254 357.959 394.923 408.387 420.094 423.496 450.397 373.068 425.254 357.959Z" fill="#e3640a" fill-rule="evenodd"/>
<path transform="matrix(1,0,0,-1,0,720)" d="M426.076 358.469 395.773 408.898 420.094 423.496 450.397 373.068 426.076 358.469Z" fill="#e4660a" fill-rule="evenodd"/>
<path transform="matrix(1,0,0,-1,0,720)" d="M426.926 358.951 396.624 409.408 420.094 423.496 450.397 373.068 426.926 358.951Z" fill="#e5680a" fill-rule="evenodd"/>
<path transform="matrix(1,0,0,-1,0,720)" d="M427.748 359.461 397.446 409.89 420.094 423.496 450.397 373.068 427.748 359.461Z" fill="#e56a09" fill-rule="evenodd"/>
<path transform="matrix(1,0,0,-1,0,720)" d="M428.598 359.972 398.296 410.4 420.094 423.496 450.397 373.068 428.598 359.972Z" fill="#e66c09" fill-rule="evenodd"/>
<path transform="matrix(1,0,0,-1,0,720)" d="M429.42 360.482 399.118 410.91 420.094 423.496 450.397 373.068 429.42 360.482Z" fill="#e76e09" fill-rule="evenodd"/>
<path transform="matrix(1,0,0,-1,0,720)" d="M430.271 360.992 399.969 411.42 420.094 423.496 450.397 373.068 430.271 360.992Z" fill="#e77008" fill-rule="evenodd"/>
<path transform="matrix(1,0,0,-1,0,720)" d="M431.121 361.474 400.791 411.902 420.094 423.496 450.397 373.068 431.121 361.474Z" fill="#e87208" fill-rule="evenodd"/>
<path transform="matrix(1,0,0,-1,0,720)" d="M431.943 361.984 401.641 412.413 420.094 423.496 450.397 373.068 431.943 361.984Z" fill="#e87407" fill-rule="evenodd"/>
<path transform="matrix(1,0,0,-1,0,720)" d="M432.794 362.494 402.491 412.923 420.094 423.496 450.397 373.068 432.794 362.494Z" fill="#e97607" fill-rule="evenodd"/>
<path transform="matrix(1,0,0,-1,0,720)" d="M433.616 363.005 403.313 413.433 420.094 423.496 450.397 373.068 433.616 363.005Z" fill="#ea7807" fill-rule="evenodd"/>
<path transform="matrix(1,0,0,-1,0,720)" d="M434.466 363.487 404.164 413.943 420.094 423.496 450.397 373.068 434.466 363.487Z" fill="#ea7a06" fill-rule="evenodd"/>
<path transform="matrix(1,0,0,-1,0,720)" d="M435.288 363.997 404.986 414.425 420.094 423.496 450.397 373.068 435.288 363.997Z" fill="#eb7c06" fill-rule="evenodd"/>
<path transform="matrix(1,0,0,-1,0,720)" d="M436.139 364.507 405.836 414.935 420.094 423.496 450.397 373.068 436.139 364.507Z" fill="#ec7e06" fill-rule="evenodd"/>
<path transform="matrix(1,0,0,-1,0,720)" d="M436.989 365.017 406.658 415.446 420.094 423.496 450.397 373.068 436.989 365.017Z" fill="#ec8005" fill-rule="evenodd"/>
<path transform="matrix(1,0,0,-1,0,720)" d="M437.811 365.499 407.509 415.956 420.094 423.496 450.397 373.068 437.811 365.499Z" fill="#ed8205" fill-rule="evenodd"/>
<path transform="matrix(1,0,0,-1,0,720)" d="M438.661 366.009 408.359 416.438 420.094 423.496 450.397 373.068 438.661 366.009Z" fill="#ee8405" fill-rule="evenodd"/>
<path transform="matrix(1,0,0,-1,0,720)" d="M439.483 366.52 409.181 416.948 420.094 423.496 450.397 373.068 439.483 366.52Z" fill="#ee8604" fill-rule="evenodd"/>
<path transform="matrix(1,0,0,-1,0,720)" d="M440.334 367.03 410.031 417.458 420.094 423.496 450.397 373.068 440.334 367.03Z" fill="#ef8804" fill-rule="evenodd"/>
<path transform="matrix(1,0,0,-1,0,720)" d="M441.156 367.512 410.854 417.969 420.094 423.496 450.397 373.068 441.156 367.512Z" fill="#f08a04" fill-rule="evenodd"/>
<path transform="matrix(1,0,0,-1,0,720)" d="M442.006 368.022 411.704 418.45 420.094 423.496 450.397 373.068 442.006 368.022Z" fill="#f08c03" fill-rule="evenodd"/>
<path transform="matrix(1,0,0,-1,0,720)" d="M442.828 368.532 412.526 418.961 420.094 423.496 450.397 373.068 442.828 368.532Z" fill="#f18e03" fill-rule="evenodd"/>
<path transform="matrix(1,0,0,-1,0,720)" d="M443.679 369.043 413.376 419.471 420.094 423.496 450.397 373.068 443.679 369.043Z" fill="#f19002" fill-rule="evenodd"/>
<path transform="matrix(1,0,0,-1,0,720)" d="M444.529 369.553 414.227 419.981 420.094 423.496 450.397 373.068 444.529 369.553Z" fill="#f29202" fill-rule="evenodd"/>
<path transform="matrix(1,0,0,-1,0,720)" d="M445.351 370.035 415.049 420.463 420.094 423.496 450.397 373.068 445.351 370.035Z" fill="#f39402" fill-rule="evenodd"/>
<path transform="matrix(1,0,0,-1,0,720)" d="M446.202 370.545 415.899 420.973 420.094 423.496 450.397 373.068 446.202 370.545Z" fill="#f39601" fill-rule="evenodd"/>
<path transform="matrix(1,0,0,-1,0,720)" d="M447.024 371.055 416.721 421.483 420.094 423.496 450.397 373.068 447.024 371.055Z" fill="#f49801" fill-rule="evenodd"/>
<path transform="matrix(1,0,0,-1,0,720)" d="M447.874 371.565 417.572 421.994 420.094 423.496 450.397 373.068 447.874 371.565Z" fill="#f59a01" fill-rule="evenodd"/>
<path transform="matrix(1,0,0,-1,0,720)" d="M448.696 372.047 418.394 422.504 420.094 423.496 450.397 373.068 448.696 372.047Z" fill="#f59c00" fill-rule="evenodd"/>
<path transform="matrix(1,0,0,-1,0,720)" d="M449.546 372.557 419.244 422.986 420.094 423.496 450.397 373.068 449.546 372.557Z" fill="#f69e00" fill-rule="evenodd"/>
</g>
</svg>
